<?xml version="1.0" encoding="UTF-8"?>
<!--Generator: Apple Native CoreSVG 149-->
<!DOCTYPE svg
PUBLIC "-//W3C//DTD SVG 1.1//EN"
       "http://www.w3.org/Graphics/SVG/1.1/DTD/svg11.dtd">
<svg version="1.1" xmlns="http://www.w3.org/2000/svg" xmlns:xlink="http://www.w3.org/1999/xlink" width="3300" height="2200">
 <!--glyph: "uni10049A.medium", point size: 100.000000, font version: "Version 16.0d12e3", template writer version: "8"-->
 <g id="Notes">
  <rect height="2200" id="artboard" style="fill:white;opacity:1" width="3300" x="0" y="0"/>
  <line id="" style="fill:none;stroke:black;opacity:1;stroke-width:0.5;" x1="263" x2="3036" y1="292" y2="292"/>
  <text style="stroke:none;fill:black;font-family:-apple-system,&quot;SF Pro Display&quot;,&quot;SF Pro Text&quot;,Helvetica,sans-serif;font-weight:bold;" transform="matrix(1 0 0 1 263 322)">Weight/Scale Variations</text>
  <text style="stroke:none;fill:black;font-family:-apple-system,&quot;SF Pro Display&quot;,&quot;SF Pro Text&quot;,Helvetica,sans-serif;text-anchor:middle;" transform="matrix(1 0 0 1 559.711 322)">Ultralight</text>
  <text style="stroke:none;fill:black;font-family:-apple-system,&quot;SF Pro Display&quot;,&quot;SF Pro Text&quot;,Helvetica,sans-serif;text-anchor:middle;" transform="matrix(1 0 0 1 856.422 322)">Thin</text>
  <text style="stroke:none;fill:black;font-family:-apple-system,&quot;SF Pro Display&quot;,&quot;SF Pro Text&quot;,Helvetica,sans-serif;text-anchor:middle;" transform="matrix(1 0 0 1 1153.13 322)">Light</text>
  <text style="stroke:none;fill:black;font-family:-apple-system,&quot;SF Pro Display&quot;,&quot;SF Pro Text&quot;,Helvetica,sans-serif;text-anchor:middle;" transform="matrix(1 0 0 1 1449.84 322)">Regular</text>
  <text style="stroke:none;fill:black;font-family:-apple-system,&quot;SF Pro Display&quot;,&quot;SF Pro Text&quot;,Helvetica,sans-serif;text-anchor:middle;" transform="matrix(1 0 0 1 1746.56 322)">Medium</text>
  <text style="stroke:none;fill:black;font-family:-apple-system,&quot;SF Pro Display&quot;,&quot;SF Pro Text&quot;,Helvetica,sans-serif;text-anchor:middle;" transform="matrix(1 0 0 1 2043.27 322)">Semibold</text>
  <text style="stroke:none;fill:black;font-family:-apple-system,&quot;SF Pro Display&quot;,&quot;SF Pro Text&quot;,Helvetica,sans-serif;text-anchor:middle;" transform="matrix(1 0 0 1 2339.98 322)">Bold</text>
  <text style="stroke:none;fill:black;font-family:-apple-system,&quot;SF Pro Display&quot;,&quot;SF Pro Text&quot;,Helvetica,sans-serif;text-anchor:middle;" transform="matrix(1 0 0 1 2636.69 322)">Heavy</text>
  <text style="stroke:none;fill:black;font-family:-apple-system,&quot;SF Pro Display&quot;,&quot;SF Pro Text&quot;,Helvetica,sans-serif;text-anchor:middle;" transform="matrix(1 0 0 1 2933.4 322)">Black</text>
  <line id="" style="fill:none;stroke:black;opacity:1;stroke-width:0.5;" x1="263" x2="3036" y1="1903" y2="1903"/>
  <g id="" transform="matrix(1 0 0 1 263 1933)">
   <path d="M9.24805 0.830078C13.5547 0.830078 17.1387-2.74414 17.1387-7.05078C17.1387-11.3574 13.5449-14.9316 9.23828-14.9316C4.94141-14.9316 1.36719-11.3574 1.36719-7.05078C1.36719-2.74414 4.95117 0.830078 9.24805 0.830078ZM9.24805-0.654297C5.70312-0.654297 2.87109-3.49609 2.87109-7.05078C2.87109-10.6055 5.69336-13.4473 9.23828-13.4473C12.793-13.4473 15.6348-10.6055 15.6445-7.05078C15.6543-3.49609 12.8027-0.654297 9.24805-0.654297ZM9.22852-3.62305C9.69727-3.62305 9.9707-3.93555 9.9707-4.45312L9.9707-6.31836L12.002-6.31836C12.5-6.31836 12.832-6.57227 12.832-7.04102C12.832-7.51953 12.5195-7.7832 12.002-7.7832L9.9707-7.7832L9.9707-9.81445C9.9707-10.332 9.69727-10.6543 9.22852-10.6543C8.75977-10.6543 8.50586-10.3125 8.50586-9.81445L8.50586-7.7832L6.49414-7.7832C5.97656-7.7832 5.64453-7.51953 5.64453-7.04102C5.64453-6.57227 5.99609-6.31836 6.49414-6.31836L8.50586-6.31836L8.50586-4.45312C8.50586-3.95508 8.75977-3.62305 9.22852-3.62305Z"/>
  </g>
  <g id="" transform="matrix(1 0 0 1 281.506 1933)">
   <path d="M11.709 2.91016C17.1582 2.91016 21.6699-1.61133 21.6699-7.05078C21.6699-12.5 17.1484-17.0117 11.6992-17.0117C6.25977-17.0117 1.74805-12.5 1.74805-7.05078C1.74805-1.61133 6.26953 2.91016 11.709 2.91016ZM11.709 1.25C7.09961 1.25 3.41797-2.44141 3.41797-7.05078C3.41797-11.6602 7.08984-15.3516 11.6992-15.3516C16.3086-15.3516 20-11.6602 20.0098-7.05078C20.0195-2.44141 16.3184 1.25 11.709 1.25ZM11.6797-2.66602C12.207-2.66602 12.5098-3.01758 12.5098-3.59375L12.5098-6.23047L15.3223-6.23047C15.8691-6.23047 16.25-6.51367 16.25-7.03125C16.25-7.55859 15.8887-7.86133 15.3223-7.86133L12.5098-7.86133L12.5098-10.6836C12.5098-11.25 12.207-11.6113 11.6797-11.6113C11.1621-11.6113 10.8789-11.2305 10.8789-10.6836L10.8789-7.86133L8.07617-7.86133C7.50977-7.86133 7.13867-7.55859 7.13867-7.03125C7.13867-6.51367 7.5293-6.23047 8.07617-6.23047L10.8789-6.23047L10.8789-3.59375C10.8789-3.03711 11.1621-2.66602 11.6797-2.66602Z"/>
  </g>
  <g id="" transform="matrix(1 0 0 1 304.924 1933)">
   <path d="M14.9707 5.66406C21.9336 5.66406 27.6953-0.0976562 27.6953-7.05078C27.6953-14.0137 21.9238-19.7754 14.9609-19.7754C8.00781-19.7754 2.25586-14.0137 2.25586-7.05078C2.25586-0.0976562 8.01758 5.66406 14.9707 5.66406ZM14.9707 3.84766C8.93555 3.84766 4.08203-1.01562 4.08203-7.05078C4.08203-13.0957 8.92578-17.9492 14.9609-17.9492C21.0059-17.9492 25.8594-13.0957 25.8691-7.05078C25.8789-1.01562 21.0156 3.84766 14.9707 3.84766ZM14.9414-1.38672C15.5176-1.38672 15.8594-1.77734 15.8594-2.38281L15.8594-6.13281L19.7754-6.13281C20.3711-6.13281 20.7812-6.46484 20.7812-7.02148C20.7812-7.59766 20.3906-7.93945 19.7754-7.93945L15.8594-7.93945L15.8594-11.8652C15.8594-12.4805 15.5176-12.8711 14.9414-12.8711C14.375-12.8711 14.0527-12.4609 14.0527-11.8652L14.0527-7.93945L10.1465-7.93945C9.53125-7.93945 9.13086-7.59766 9.13086-7.02148C9.13086-6.46484 9.55078-6.13281 10.1465-6.13281L14.0527-6.13281L14.0527-2.38281C14.0527-1.79688 14.375-1.38672 14.9414-1.38672Z"/>
  </g>
  <text style="stroke:none;fill:black;font-family:-apple-system,&quot;SF Pro Display&quot;,&quot;SF Pro Text&quot;,Helvetica,sans-serif;font-weight:bold;" transform="matrix(1 0 0 1 263 1953)">Design Variations</text>
  <text style="stroke:none;fill:black;font-family:-apple-system,&quot;SF Pro Display&quot;,&quot;SF Pro Text&quot;,Helvetica,sans-serif;" transform="matrix(1 0 0 1 263 1971)">Symbols are supported in up to nine weights and three scales.</text>
  <text style="stroke:none;fill:black;font-family:-apple-system,&quot;SF Pro Display&quot;,&quot;SF Pro Text&quot;,Helvetica,sans-serif;" transform="matrix(1 0 0 1 263 1989)">For optimal layout with text and other symbols, vertically align</text>
  <text style="stroke:none;fill:black;font-family:-apple-system,&quot;SF Pro Display&quot;,&quot;SF Pro Text&quot;,Helvetica,sans-serif;" transform="matrix(1 0 0 1 263 2007)">symbols with the adjacent text.</text>
  <line id="" style="fill:none;stroke:#00AEEF;stroke-width:0.5;opacity:1.0;" x1="776" x2="776" y1="1919" y2="1933"/>
  <g id="" transform="matrix(1 0 0 1 776 1933)">
   <path d="M3.31055 0.126953C3.82812 0.126953 4.08203-0.0683594 4.26758-0.605469L5.52734-4.0625L11.2891-4.0625L12.5488-0.605469C12.7344-0.0683594 12.9883 0.126953 13.4961 0.126953C14.0137 0.126953 14.3457-0.185547 14.3457-0.673828C14.3457-0.839844 14.3164-0.986328 14.2383-1.20117L9.6582-13.3887C9.43359-13.9941 9.0332-14.2871 8.4082-14.2871C7.80273-14.2871 7.39258-13.9941 7.17773-13.3984L2.59766-1.19141C2.51953-0.976562 2.49023-0.830078 2.49023-0.664062C2.49023-0.175781 2.80273 0.126953 3.31055 0.126953ZM6.00586-5.53711L8.37891-12.1094L8.42773-12.1094L10.8008-5.53711Z"/>
  </g>
  <line id="" style="fill:none;stroke:#00AEEF;stroke-width:0.5;opacity:1.0;" x1="792.836" x2="792.836" y1="1919" y2="1933"/>
  <text style="stroke:none;fill:black;font-family:-apple-system,&quot;SF Pro Display&quot;,&quot;SF Pro Text&quot;,Helvetica,sans-serif;font-weight:bold;" transform="matrix(1 0 0 1 776 1953)">Margins</text>
  <text style="stroke:none;fill:black;font-family:-apple-system,&quot;SF Pro Display&quot;,&quot;SF Pro Text&quot;,Helvetica,sans-serif;" transform="matrix(1 0 0 1 776 1971)">Leading and trailing margins on the left and right side of each symbol</text>
  <text style="stroke:none;fill:black;font-family:-apple-system,&quot;SF Pro Display&quot;,&quot;SF Pro Text&quot;,Helvetica,sans-serif;" transform="matrix(1 0 0 1 776 1989)">can be adjusted by modifying the x-location of the margin guidelines.</text>
  <text style="stroke:none;fill:black;font-family:-apple-system,&quot;SF Pro Display&quot;,&quot;SF Pro Text&quot;,Helvetica,sans-serif;" transform="matrix(1 0 0 1 776 2007)">Modifications are automatically applied proportionally to all</text>
  <text style="stroke:none;fill:black;font-family:-apple-system,&quot;SF Pro Display&quot;,&quot;SF Pro Text&quot;,Helvetica,sans-serif;" transform="matrix(1 0 0 1 776 2025)">scales and weights.</text>
  <g id="" transform="matrix(1 0 0 1 1289 1933)">
   <path d="M2.8418 1.86523L4.54102 3.57422C5.40039 4.44336 6.38672 4.38477 7.31445 3.35938L17.4902-7.85156C17.7539-7.76367 18.0273-7.7832 18.3398-7.8418L19.4043-8.03711L20.0684-7.36328L20.0293-6.80664C19.9902-6.30859 20.1172-5.92773 20.6055-5.44922L21.3672-4.70703C21.8457-4.22852 22.4609-4.19922 22.9297-4.66797L25.8398-7.58789C26.3086-8.05664 26.2891-8.65234 25.8105-9.13086L25.0391-9.89258C24.5605-10.3711 24.1895-10.5273 23.7109-10.4883L23.1348-10.4395L22.4902-11.0742L22.7344-12.1973C22.8613-12.7637 22.7051-13.2031 22.1191-13.7891L19.9219-15.9766C16.582-19.2969 12.1484-19.2188 9.25781-16.3281C8.83789-15.918 8.80859-15.3418 9.04297-14.9512C9.27734-14.5898 9.73633-14.3555 10.3809-14.5215C11.8457-14.8633 13.3691-14.9219 14.7949-13.9844L14.209-12.5293C14.0137-12.0508 13.9844-11.6504 14.1113-11.2891L3.04688-0.898438C2.06055 0.0195312 1.98242 0.996094 2.8418 1.86523ZM10.752-15.957C13.1836-17.7344 16.4746-17.4316 18.7012-15.2051L21.1328-12.793C21.3672-12.5586 21.4062-12.373 21.3379-12.0312L21.0156-10.5469L22.5195-9.0625L23.5059-9.12109C23.7598-9.13086 23.8379-9.11133 24.0332-8.91602L24.6094-8.33984L22.168-5.89844L21.5918-6.47461C21.3965-6.66992 21.3672-6.74805 21.377-7.01172L21.4453-7.98828L19.9512-9.47266L18.4277-9.21875C18.1055-9.15039 17.959-9.17969 17.7148-9.41406L15.7129-11.416C15.459-11.6504 15.4297-11.8164 15.5859-12.1875L16.4648-14.2773C14.9023-15.7324 12.8711-16.3574 10.8398-15.7617C10.6836-15.7227 10.625-15.8496 10.752-15.957ZM5.27344 2.30469L4.10156 1.14258C3.63281 0.683594 3.74023 0.341797 4.14062-0.0195312L14.9512-10.1953L16.416-8.71094L6.42578 2.27539C6.07422 2.67578 5.74219 2.77344 5.27344 2.30469Z"/>
  </g>
  <text style="stroke:none;fill:black;font-family:-apple-system,&quot;SF Pro Display&quot;,&quot;SF Pro Text&quot;,Helvetica,sans-serif;font-weight:bold;" transform="matrix(1 0 0 1 1289 1953)">Exporting</text>
  <text style="stroke:none;fill:black;font-family:-apple-system,&quot;SF Pro Display&quot;,&quot;SF Pro Text&quot;,Helvetica,sans-serif;" transform="matrix(1 0 0 1 1289 1971)">Symbols should be outlined when exporting to ensure the</text>
  <text style="stroke:none;fill:black;font-family:-apple-system,&quot;SF Pro Display&quot;,&quot;SF Pro Text&quot;,Helvetica,sans-serif;" transform="matrix(1 0 0 1 1289 1989)">design is preserved when submitting to Xcode.</text>
  <text id="template-version" style="stroke:none;fill:black;font-family:-apple-system,&quot;SF Pro Display&quot;,&quot;SF Pro Text&quot;,Helvetica,sans-serif;text-anchor:end;" transform="matrix(1 0 0 1 3036 1933)">Template v.2.0</text>
  <text style="stroke:none;fill:black;font-family:-apple-system,&quot;SF Pro Display&quot;,&quot;SF Pro Text&quot;,Helvetica,sans-serif;text-anchor:end;" transform="matrix(1 0 0 1 3036 1951)">Requires Xcode 12 or greater</text>
  <text style="stroke:none;fill:black;font-family:-apple-system,&quot;SF Pro Display&quot;,&quot;SF Pro Text&quot;,Helvetica,sans-serif;text-anchor:end;" transform="matrix(1 0 0 1 3036 1969)">Generated from bolt.horizontal.circle.fill</text>
  <text style="stroke:none;fill:black;font-family:-apple-system,&quot;SF Pro Display&quot;,&quot;SF Pro Text&quot;,Helvetica,sans-serif;text-anchor:end;" transform="matrix(1 0 0 1 3036 1987)">Typeset at 100 points</text>
  <text style="stroke:none;fill:black;font-family:-apple-system,&quot;SF Pro Display&quot;,&quot;SF Pro Text&quot;,Helvetica,sans-serif;" transform="matrix(1 0 0 1 263 726)">Small</text>
  <text style="stroke:none;fill:black;font-family:-apple-system,&quot;SF Pro Display&quot;,&quot;SF Pro Text&quot;,Helvetica,sans-serif;" transform="matrix(1 0 0 1 263 1156)">Medium</text>
  <text style="stroke:none;fill:black;font-family:-apple-system,&quot;SF Pro Display&quot;,&quot;SF Pro Text&quot;,Helvetica,sans-serif;" transform="matrix(1 0 0 1 263 1586)">Large</text>
 </g>
 <g id="Guides">
  <g id="H-reference" style="fill:#27AAE1;stroke:none;" transform="matrix(1 0 0 1 339 696)">
   <path d="M0.976562 0L3.66211 0L12.9883-24.4629L45.752-24.4629L55.127 0L57.7637 0L30.6152-70.459L28.125-70.459ZM29.3457-67.1387L29.4434-67.1387L44.873-26.709L13.8672-26.709Z"/>
  </g>
  <line id="Baseline-S" style="fill:none;stroke:#27AAE1;opacity:1;stroke-width:0.5;" x1="263" x2="3036" y1="696" y2="696"/>
  <line id="Capline-S" style="fill:none;stroke:#27AAE1;opacity:1;stroke-width:0.5;" x1="263" x2="3036" y1="625.541" y2="625.541"/>
  <g id="H-reference" style="fill:#27AAE1;stroke:none;" transform="matrix(1 0 0 1 339 1126)">
   <path d="M0.976562 0L3.66211 0L12.9883-24.4629L45.752-24.4629L55.127 0L57.7637 0L30.6152-70.459L28.125-70.459ZM29.3457-67.1387L29.4434-67.1387L44.873-26.709L13.8672-26.709Z"/>
  </g>
  <line id="Baseline-M" style="fill:none;stroke:#27AAE1;opacity:1;stroke-width:0.5;" x1="263" x2="3036" y1="1126" y2="1126"/>
  <line id="Capline-M" style="fill:none;stroke:#27AAE1;opacity:1;stroke-width:0.5;" x1="263" x2="3036" y1="1055.54" y2="1055.54"/>
  <g id="H-reference" style="fill:#27AAE1;stroke:none;" transform="matrix(1 0 0 1 339 1556)">
   <path d="M0.976562 0L3.66211 0L12.9883-24.4629L45.752-24.4629L55.127 0L57.7637 0L30.6152-70.459L28.125-70.459ZM29.3457-67.1387L29.4434-67.1387L44.873-26.709L13.8672-26.709Z"/>
  </g>
  <line id="Baseline-L" style="fill:none;stroke:#27AAE1;opacity:1;stroke-width:0.5;" x1="263" x2="3036" y1="1556" y2="1556"/>
  <line id="Capline-L" style="fill:none;stroke:#27AAE1;opacity:1;stroke-width:0.5;" x1="263" x2="3036" y1="1485.54" y2="1485.54"/>
  <line id="left-margin" style="fill:none;stroke:#00AEEF;stroke-width:0.5;opacity:1.0;" x1="1391.3" x2="1391.3" y1="1030.79" y2="1150.12"/>
  <line id="right-margin" style="fill:none;stroke:#00AEEF;stroke-width:0.5;opacity:1.0;" x1="1508.39" x2="1508.39" y1="1030.79" y2="1150.12"/>
 </g>
 <g id="Symbols">
  <g id="Black-L" transform="matrix(1 0 0 1 2854.05 1556)">
   <path d="M79.3457 32.9102C116.748 32.9102 147.412 2.29492 147.412-35.1074C147.412-72.5586 116.748-103.174 79.2969-103.174C41.8945-103.174 11.2793-72.5586 11.2793-35.1074C11.2793 2.29492 41.9434 32.9102 79.3457 32.9102ZM39.8926-26.6602L59.5703-51.1719C61.4746-53.5645 63.623-54.7363 65.8691-54.7363C67.4805-54.7363 68.9453-54.248 70.6543-53.2715L92.4316-41.0156L112.256-50.9766C118.311-53.9551 122.949-47.998 118.799-42.8223L99.0723-18.2617C97.168-15.9668 95.0195-14.7461 92.7246-14.7461C91.1621-14.7461 89.5996-15.1855 87.9883-16.1621L66.1621-28.5156L46.4355-18.5059C40.332-15.4785 35.5957-21.4355 39.8926-26.6602Z"/>
  </g>
  <g id="Heavy-L" transform="matrix(1 0 0 1 2558.39 1556)">
   <path d="M78.2715 31.8848C115.088 31.8848 145.312 1.66016 145.312-35.1562C145.312-71.9238 115.039-102.148 78.2715-102.148C41.4551-102.148 11.2793-71.9238 11.2793-35.1562C11.2793 1.66016 41.5039 31.8848 78.2715 31.8848ZM38.3301-25.6836L58.5938-51.0742C60.3027-53.2227 62.207-54.248 64.209-54.248C65.6738-54.248 67.041-53.8086 68.6035-52.9297L91.9922-39.9414L112.256-50.3418C117.725-53.0273 121.924-47.7051 118.213-43.0176L97.9492-17.5781C96.2402-15.4785 94.2871-14.4043 92.2363-14.4043C90.8203-14.4043 89.4043-14.7949 87.8906-15.7227L64.4531-28.7598L44.2871-18.3105C38.8672-15.5762 34.4727-20.8496 38.3301-25.6836Z"/>
  </g>
  <g id="Bold-L" transform="matrix(1 0 0 1 2262.88 1556)">
   <path d="M77.0996 30.6641C113.232 30.6641 142.92 0.927734 142.92-35.1562C142.92-71.2891 113.184-100.977 77.0508-100.977C40.9668-100.977 11.2793-71.2891 11.2793-35.1562C11.2793 0.927734 41.0156 30.6641 77.0996 30.6641ZM36.6211-24.5605L57.4219-50.9277C58.9844-52.832 60.6445-53.7598 62.4023-53.7598C63.6719-53.7598 64.8926-53.3203 66.3086-52.5391L91.5527-38.7207L112.256-49.6094C117.041-52.002 120.801-47.3633 117.529-43.2617L96.6797-16.7969C95.166-14.9414 93.5059-14.0137 91.748-14.0137C90.4785-14.0137 89.209-14.4043 87.8418-15.1855L62.5977-29.0527L41.8945-18.1152C37.2559-15.7227 33.2031-20.2148 36.6211-24.5605Z"/>
  </g>
  <g id="Semibold-L" transform="matrix(1 0 0 1 1966.97 1556)">
   <path d="M76.2695 29.834C111.914 29.834 141.309 0.439453 141.309-35.1562C141.309-70.8008 111.865-100.195 76.2695-100.195C40.625-100.195 11.2793-70.8008 11.2793-35.1562C11.2793 0.439453 40.6738 29.834 76.2695 29.834ZM35.4492-23.7793L56.6895-50.8301C58.0566-52.5879 59.5215-53.3691 61.1328-53.3691C62.2559-53.3691 63.4277-52.9785 64.6973-52.2461L91.2109-37.8906L112.256-49.0723C116.553-51.3184 120.02-47.168 117.09-43.4082L95.8496-16.2598C94.4336-14.5508 92.9199-13.7207 91.3574-13.7207C90.2344-13.7207 89.0625-14.1113 87.793-14.8438L61.2793-29.248L40.2832-17.9688C36.084-15.8203 32.3242-19.7754 35.4492-23.7793Z"/>
  </g>
  <g id="Medium-L" transform="matrix(1 0 0 1 1670.87 1556)">
   <path d="M75.6836 29.1992C110.938 29.1992 140.088 0.0976562 140.088-35.1562C140.088-70.459 110.889-99.5605 75.6348-99.5605C40.3809-99.5605 11.2793-70.459 11.2793-35.1562C11.2793 0.0976562 40.3809 29.1992 75.6836 29.1992ZM34.5703-23.1934L56.1035-50.7812C57.373-52.3926 58.6914-53.125 60.1562-53.125C61.2305-53.125 62.3047-52.6855 63.4766-52.0508L90.9668-37.207L112.256-48.7305C116.211-50.7812 119.434-47.0215 116.748-43.5059L95.166-15.8691C93.8965-14.2578 92.5293-13.5254 91.0645-13.5254C90.0391-13.5254 88.916-13.916 87.7441-14.5508L60.2539-29.3945L39.0137-17.8711C35.2539-15.918 31.6895-19.4336 34.5703-23.1934Z"/>
  </g>
  <g id="Regular-L" transform="matrix(1 0 0 1 1374.97 1556)">
   <path d="M74.8535 28.418C109.668 28.418 138.477-0.390625 138.477-35.2051C138.477-69.9707 109.619-98.7793 74.8047-98.7793C40.0391-98.7793 11.2793-69.9707 11.2793-35.2051C11.2793-0.390625 40.0879 28.418 74.8535 28.418ZM33.3984-22.4121L55.3223-50.6836C56.4453-52.0996 57.6172-52.7344 58.8867-52.7344C59.8633-52.7344 60.8398-52.3926 61.9141-51.8066L90.625-36.377L112.256-48.2422C115.723-50.0977 118.652-46.7773 116.26-43.6523L94.3359-15.332C93.2129-13.916 91.9922-13.2324 90.7227-13.2324C89.7949-13.2324 88.7695-13.623 87.6953-14.209L58.9844-29.5898L37.4023-17.7734C34.1309-16.0156 30.8105-19.043 33.3984-22.4121Z"/>
  </g>
  <g id="Light-L" transform="matrix(1 0 0 1 1079.18 1556)">
   <path d="M73.9258 27.4902C108.301 27.4902 136.621-0.830078 136.621-35.2051C136.621-69.5312 108.252-97.8516 73.9258-97.8516C39.5508-97.8516 11.2793-69.5312 11.2793-35.2051C11.2793-0.830078 39.5996 27.4902 73.9258 27.4902ZM33.3008-21.7285L55.2734-50C56.1523-51.0742 57.0801-51.5625 58.0566-51.5625C58.7891-51.5625 59.5703-51.3184 60.3516-50.8789L89.6973-35.1074L111.328-47.168C114.209-48.7305 116.455-46.0938 114.551-43.5059L92.627-15.2344C91.7969-14.209 90.8203-13.7207 89.8438-13.7207C89.1113-13.7207 88.3301-13.9648 87.5-14.4043L58.2031-30.1758L36.5234-18.0664C33.8379-16.6016 31.2012-19.043 33.3008-21.7285Z"/>
  </g>
  <g id="Thin-L" transform="matrix(1 0 0 1 783.693 1556)">
   <path d="M72.7051 26.2695C106.494 26.2695 134.18-1.41602 134.18-35.2051C134.18-68.9453 106.494-96.6309 72.7051-96.6309C38.9648-96.6309 11.2793-68.9453 11.2793-35.2051C11.2793-1.41602 38.9648 26.2695 72.7051 26.2695ZM33.1543-20.8496L55.2246-49.1211C55.7129-49.707 56.2988-50 56.9824-50C57.373-50 57.8613-49.9023 58.252-49.6582L88.4277-33.3984L110.059-45.752C112.207-46.9727 113.574-45.166 112.207-43.3594L90.3809-15.1855C89.8926-14.5996 89.3066-14.3066 88.6719-14.3066C88.1836-14.3066 87.6953-14.4043 87.207-14.6973L57.1777-30.9082L35.3516-18.457C33.4473-17.3828 31.7383-19.043 33.1543-20.8496Z"/>
  </g>
  <g id="Ultralight-L" transform="matrix(1 0 0 1 487.616 1556)">
   <path d="M72.1191 25.6348C105.566 25.6348 132.91-1.70898 132.91-35.2051C132.91-68.6523 105.566-95.9961 72.1191-95.9961C38.623-95.9961 11.2793-68.6523 11.2793-35.2051C11.2793-1.70898 38.623 25.6348 72.1191 25.6348ZM33.0566-20.4102L55.2246-48.6328C55.5176-49.0234 55.9082-49.2188 56.3965-49.2188C56.6406-49.2188 56.9824-49.1699 57.2266-49.0234L87.793-32.5195L109.424-45.0684C111.182-46.0938 112.109-44.6777 111.035-43.2617L89.2578-15.1367C88.9648-14.7949 88.5254-14.5996 88.0859-14.5996C87.7441-14.5996 87.4023-14.6484 87.1094-14.8438L56.6406-31.25L34.7656-18.6523C33.252-17.7734 32.0312-19.043 33.0566-20.4102Z"/>
  </g>
  <g id="Black-M" transform="matrix(1 0 0 1 2870.97 1126)">
   <path d="M62.4023 18.5547C91.9922 18.5547 116.113-5.56641 116.113-35.1562C116.113-64.7461 91.9922-88.8184 62.4023-88.8184C32.8125-88.8184 8.74023-64.7461 8.74023-35.1562C8.74023-5.56641 32.8125 18.5547 62.4023 18.5547ZM32.8613-29.5898L47.4609-47.4121C49.0234-49.3164 50.8789-50.3418 52.7832-50.3418C54.1016-50.3418 55.3223-49.9512 56.6895-49.1699L71.6797-40.4785L86.4746-47.7539C91.6992-50.2441 95.4102-45.1172 91.8945-40.7715L77.3438-22.998C75.7812-21.0938 73.9258-20.0684 71.9727-20.0684C70.6543-20.0684 69.4336-20.3613 68.1152-21.1914L53.125-29.9805L38.3301-22.6562C33.0566-20.0684 29.2969-25.293 32.8613-29.5898Z"/>
  </g>
  <g id="Heavy-M" transform="matrix(1 0 0 1 2575.19 1126)">
   <path d="M61.5234 17.627C90.5273 17.627 114.258-6.10352 114.258-35.1562C114.258-64.1602 90.5273-87.8906 61.4746-87.8906C32.4707-87.8906 8.74023-64.1602 8.74023-35.1562C8.74023-6.10352 32.4707 17.627 61.5234 17.627ZM31.25-28.6621L46.3867-47.4609C47.8516-49.2188 49.4629-50.1465 51.2207-50.1465C52.4414-50.1465 53.5645-49.7559 54.834-49.0234L71.4844-39.6484L86.7188-47.3145C91.4062-49.6094 94.9219-44.9707 91.748-41.0156L76.5625-22.2656C75.0977-20.5078 73.4863-19.5312 71.7285-19.5312C70.5078-19.5312 69.3359-19.873 68.1152-20.6055L51.4648-30.0781L36.2305-22.3633C31.543-20.0684 27.9785-24.6582 31.25-28.6621Z"/>
  </g>
  <g id="Bold-M" transform="matrix(1 0 0 1 2279.5 1126)">
   <path d="M60.498 16.5527C88.8672 16.5527 112.207-6.73828 112.207-35.1562C112.207-63.5742 88.8672-86.9141 60.4492-86.9141C32.0312-86.9141 8.74023-63.5742 8.74023-35.1562C8.74023-6.73828 32.0801 16.5527 60.498 16.5527ZM29.3945-27.6367L45.166-47.5098C46.4844-49.1211 47.9004-49.9023 49.4629-49.9023C50.5371-49.9023 51.6113-49.5605 52.7832-48.877L71.2402-38.6719L87.0117-46.8262C91.1133-48.877 94.3359-44.873 91.5039-41.3086L75.6836-21.3867C74.4141-19.8242 72.9492-18.9941 71.3867-18.9941C70.3125-18.9941 69.2383-19.3359 68.1152-20.0195L49.6582-30.2734L33.9355-22.0703C29.834-20.0195 26.4648-23.9746 29.3945-27.6367Z"/>
  </g>
  <g id="Semibold-M" transform="matrix(1 0 0 1 1983.5 1126)">
   <path d="M59.7656 15.8691C87.7441 15.8691 110.791-7.22656 110.791-35.1562C110.791-63.1348 87.6953-86.2305 59.7656-86.2305C31.7871-86.2305 8.74023-63.1348 8.74023-35.1562C8.74023-7.22656 31.7871 15.8691 59.7656 15.8691ZM28.1738-26.9043L44.3359-47.5586C45.5566-49.0234 46.875-49.7559 48.2422-49.7559C49.2676-49.7559 50.2441-49.4141 51.3672-48.7793L71.0449-38.0371L87.207-46.4844C90.918-48.3887 93.9453-44.7754 91.3574-41.5039L75.0977-20.8496C73.9258-19.3359 72.5586-18.6035 71.1914-18.6035C70.2148-18.6035 69.1895-18.9453 68.0664-19.5801L48.3887-30.3711L32.3242-21.875C28.6621-20.0195 25.4395-23.4863 28.1738-26.9043Z"/>
  </g>
  <g id="Medium-M" transform="matrix(1 0 0 1 1687.3 1126)">
   <path d="M59.2285 15.332C86.9141 15.332 109.766-7.51953 109.766-35.2051C109.766-62.8418 86.8652-85.6934 59.1797-85.6934C31.543-85.6934 8.74023-62.8418 8.74023-35.2051C8.74023-7.51953 31.5918 15.332 59.2285 15.332ZM27.1973-26.3672L43.7012-47.5586C44.873-48.9746 46.0449-49.6094 47.3145-49.6094C48.291-49.6094 49.2188-49.2676 50.293-48.7305L70.9473-37.5L87.3535-46.2402C90.7715-47.998 93.6035-44.6777 91.2598-41.6504L74.6582-20.4102C73.5352-18.9941 72.3145-18.3105 71.0449-18.3105C70.0684-18.3105 69.1406-18.6523 68.0664-19.2383L47.4121-30.4688L31.1035-21.7285C27.7832-20.0195 24.6582-23.1445 27.1973-26.3672Z"/>
  </g>
  <g id="Regular-M" transform="matrix(1 0 0 1 1391.3 1126)">
   <path d="M58.5449 14.5996C85.791 14.5996 108.35-7.95898 108.35-35.2051C108.35-62.4023 85.7422-85.0098 58.4961-85.0098C31.2988-85.0098 8.74023-62.4023 8.74023-35.2051C8.74023-7.95898 31.3477 14.5996 58.5449 14.5996ZM25.9277-25.6836L42.8711-47.6074C43.9453-48.877 44.9707-49.4629 46.0938-49.4629C46.9727-49.4629 47.9004-49.1211 48.877-48.584L70.752-36.8652L87.5488-45.8984C90.5273-47.5098 93.2129-44.5801 91.1133-41.8457L74.0723-19.8242C73.0469-18.5059 71.9238-17.9688 70.8008-17.9688C69.9707-17.9688 69.043-18.3105 68.0664-18.8477L46.1426-30.5664L29.4922-21.5332C26.6113-19.9707 23.6328-22.6562 25.9277-25.6836Z"/>
  </g>
  <g id="Light-M" transform="matrix(1 0 0 1 1095.42 1126)">
   <path d="M57.7148 13.7695C84.5215 13.7695 106.689-8.34961 106.689-35.2051C106.689-62.0117 84.5215-84.1797 57.666-84.1797C30.8594-84.1797 8.74023-62.0117 8.74023-35.2051C8.74023-8.34961 30.9082 13.7695 57.7148 13.7695ZM25.8301-25.0977L42.8711-46.9727C43.6523-47.9492 44.4824-48.4375 45.3613-48.4375C46.0449-48.4375 46.7285-48.1445 47.4609-47.8027L69.9219-35.6934L86.7188-44.9707C89.209-46.2891 91.2598-43.9453 89.5508-41.6992L72.5586-19.7754C71.7773-18.7988 70.8984-18.3594 70.0195-18.3594C69.3359-18.3594 68.6523-18.6035 67.8711-18.9941L45.459-31.0547L28.7109-21.7773C26.3672-20.5078 24.0234-22.6562 25.8301-25.0977Z"/>
  </g>
  <g id="Thin-M" transform="matrix(1 0 0 1 799.806 1126)">
   <path d="M56.6406 12.6953C82.9102 12.6953 104.492-8.88672 104.492-35.2051C104.492-61.4746 82.9102-83.0566 56.5918-83.0566C30.3223-83.0566 8.74023-61.4746 8.74023-35.2051C8.74023-8.88672 30.3223 12.6953 56.6406 12.6953ZM25.7324-24.2676L42.8223-46.1914C43.3105-46.7285 43.7988-47.0215 44.3848-47.0215C44.7754-47.0215 45.2148-46.875 45.6055-46.6797L68.7988-34.1797L85.5957-43.7012C87.4023-44.7266 88.6719-43.1152 87.4512-41.5527L70.5566-19.7266C70.0684-19.1406 69.5801-18.8477 68.9941-18.8477C68.5547-18.8477 68.1152-18.9941 67.6758-19.2383L44.5312-31.6895L27.6367-22.1191C26.0254-21.2402 24.5117-22.6562 25.7324-24.2676Z"/>
  </g>
  <g id="Ultralight-M" transform="matrix(1 0 0 1 503.656 1126)">
   <path d="M56.0547 12.1094C82.0801 12.1094 103.369-9.17969 103.369-35.2051C103.369-61.2305 82.0801-82.5195 56.0547-82.5195C30.0293-82.5195 8.74023-61.2305 8.74023-35.2051C8.74023-9.17969 30.0293 12.1094 56.0547 12.1094ZM25.6836-23.877L42.8223-45.752C43.1152-46.0938 43.457-46.2891 43.8965-46.2891C44.1406-46.2891 44.4336-46.2402 44.6777-46.1426L68.2617-33.3984L85.0098-43.0664C86.4746-43.8965 87.3047-42.7246 86.4258-41.5039L69.5312-19.6777C69.2383-19.3359 68.8477-19.1406 68.457-19.1406C68.1152-19.1406 67.8223-19.1895 67.5293-19.3848L44.0918-32.0312L27.0996-22.3145C25.8301-21.582 24.7559-22.6562 25.6836-23.877Z"/>
  </g>
  <g id="Black-S" transform="matrix(1 0 0 1 2884.57 696)">
   <path d="M48.8281 6.83594C71.9727 6.83594 90.8203-12.0117 90.8203-35.1562C90.8203-58.3008 71.9727-77.1484 48.8281-77.1484C25.6836-77.1484 6.83594-58.3008 6.83594-35.1562C6.83594-12.0117 25.6836 6.83594 48.8281 6.83594ZM25.6348-30.7617L37.1094-44.7754C38.3301-46.2891 39.7461-47.0703 41.2598-47.0703C42.2852-47.0703 43.2129-46.7773 44.2871-46.1426L56.1523-39.3066L67.7734-45.0195C71.8262-46.9727 74.7559-42.9688 72.0215-39.5996L60.5469-25.5859C59.3262-24.1211 57.9102-23.291 56.3965-23.291C55.3711-23.291 54.3945-23.5352 53.3691-24.1699L41.5039-31.1035L29.8828-25.3418C25.7812-23.3398 22.8516-27.3926 25.6348-30.7617Z"/>
  </g>
  <g id="Heavy-S" transform="matrix(1 0 0 1 2588.47 696)">
   <path d="M48.2422 6.20117C70.9961 6.20117 89.5996-12.4023 89.5996-35.1562C89.5996-57.9102 70.9961-76.5625 48.1934-76.5625C25.4395-76.5625 6.83594-57.9102 6.83594-35.1562C6.83594-12.4023 25.4395 6.20117 48.2422 6.20117ZM24.4141-30.127L36.2793-44.873C37.4512-46.2891 38.7695-47.0215 40.1367-47.0215C41.1133-47.0215 41.9922-46.7285 43.0664-46.1426L56.1035-38.7695L68.0664-44.7754C71.7773-46.582 74.6094-42.9688 72.0703-39.7949L60.1562-25C58.9844-23.6328 57.666-22.8516 56.2988-22.8516C55.3223-22.8516 54.3945-23.1445 53.3691-23.7305L40.332-31.1523L28.3691-25.0977C24.6582-23.291 21.7773-26.9043 24.4141-30.127Z"/>
  </g>
  <g id="Bold-S" transform="matrix(1 0 0 1 2292.44 696)">
   <path d="M47.5586 5.51758C69.873 5.51758 88.2324-12.8418 88.2324-35.2051C88.2324-57.5195 69.873-75.8789 47.5098-75.8789C25.1953-75.8789 6.83594-57.5195 6.83594-35.2051C6.83594-12.8418 25.1953 5.51758 47.5586 5.51758ZM22.998-29.3945L35.3516-45.0195C36.4258-46.3379 37.6465-46.9727 38.8672-46.9727C39.7949-46.9727 40.6738-46.6797 41.6504-46.1426L56.0059-38.1836L68.4082-44.5312C71.7285-46.1914 74.3652-42.9199 72.0703-40.0391L59.668-24.3652C58.5938-23.0469 57.373-22.4121 56.1523-22.4121C55.2246-22.4121 54.3457-22.6562 53.418-23.2422L39.0137-31.2012L26.709-24.8535C23.3887-23.1934 20.6055-26.416 22.998-29.3945Z"/>
  </g>
  <g id="Semibold-S" transform="matrix(1 0 0 1 1996.2 696)">
   <path d="M47.0703 5.0293C69.0918 5.0293 87.3047-13.1348 87.3047-35.2051C87.3047-57.2266 69.0918-75.4395 47.0215-75.4395C25-75.4395 6.83594-57.2266 6.83594-35.2051C6.83594-13.1348 25.0488 5.0293 47.0703 5.0293ZM22.0215-28.9062L34.7168-45.0684C35.7422-46.3379 36.8652-46.9727 37.9883-46.9727C38.8672-46.9727 39.6973-46.6309 40.6738-46.1426L55.957-37.793L68.6035-44.3359C71.6797-45.8984 74.2188-42.9199 72.1191-40.1855L59.3262-23.9258C58.3008-22.7051 57.1777-22.0703 56.0059-22.0703C55.1758-22.0703 54.3457-22.3633 53.418-22.9004L38.0859-31.25L25.5371-24.6582C22.5098-23.1445 19.7754-26.0254 22.0215-28.9062Z"/>
  </g>
  <g id="Medium-S" transform="matrix(1 0 0 1 1699.83 696)">
   <path d="M46.7285 4.6875C68.5547 4.6875 86.6211-13.3789 86.6211-35.2051C86.6211-57.0312 68.5059-75.0977 46.6797-75.0977C24.8535-75.0977 6.83594-57.0312 6.83594-35.2051C6.83594-13.3789 24.9023 4.6875 46.7285 4.6875ZM21.2891-28.5156L34.2285-45.1172C35.2051-46.3867 36.2305-46.9238 37.3535-46.9238C38.1836-46.9238 39.0137-46.6309 39.9414-46.0938L55.9082-37.5L68.75-44.2383C71.6309-45.7031 74.1211-42.8711 72.1191-40.2832L59.082-23.6328C58.1055-22.4121 57.0312-21.8262 55.957-21.8262C55.127-21.8262 54.2969-22.1191 53.418-22.6074L37.4023-31.2988L24.6094-24.5117C21.8262-23.0957 19.1406-25.7324 21.2891-28.5156Z"/>
  </g>
  <g id="Regular-S" transform="matrix(1 0 0 1 1403.58 696)">
   <path d="M46.2402 4.19922C67.7734 4.19922 85.6934-13.6719 85.6934-35.2051C85.6934-56.7383 67.7246-74.6094 46.1914-74.6094C24.707-74.6094 6.83594-56.7383 6.83594-35.2051C6.83594-13.6719 24.7559 4.19922 46.2402 4.19922ZM20.3613-28.0273L33.5938-45.2148C34.5215-46.3867 35.498-46.9238 36.4746-46.9238C37.2559-46.9238 38.0859-46.582 38.9648-46.0938L55.8594-37.0605L68.9941-44.043C71.582-45.4102 73.9746-42.8711 72.1191-40.4785L58.7402-23.1934C57.8125-22.0215 56.8359-21.4844 55.8594-21.4844C55.0781-21.4844 54.2969-21.8262 53.418-22.3145L36.4746-31.3477L23.4863-24.3652C20.9473-23.0469 18.3105-25.3906 20.3613-28.0273Z"/>
  </g>
  <g id="Light-S" transform="matrix(1 0 0 1 1107.6 696)">
   <path d="M45.5078 3.4668C66.6992 3.4668 84.2285-14.0137 84.2285-35.2051C84.2285-56.3965 66.6504-73.877 45.5078-73.877C24.3164-73.877 6.83594-56.3965 6.83594-35.2051C6.83594-14.0137 24.3652 3.4668 45.5078 3.4668ZM20.2637-27.4902L33.5938-44.6777C34.2773-45.5566 35.0098-45.9473 35.791-45.9473C36.4258-45.9473 37.0605-45.752 37.6953-45.3613L55.0781-36.0352L68.2129-43.2129C70.3613-44.3848 72.2168-42.334 70.752-40.3809L57.4219-23.1445C56.6895-22.2656 55.9082-21.8262 55.127-21.8262C54.541-21.8262 53.9551-22.0703 53.2227-22.4609L35.8887-31.7871L22.7539-24.6094C20.752-23.4863 18.6523-25.3906 20.2637-27.4902Z"/>
  </g>
  <g id="Thin-S" transform="matrix(1 0 0 1 811.867 696)">
   <path d="M44.5801 2.53906C65.2832 2.53906 82.2754-14.502 82.2754-35.2051C82.2754-55.9082 65.2344-72.9492 44.5312-72.9492C23.8281-72.9492 6.83594-55.9082 6.83594-35.2051C6.83594-14.502 23.877 2.53906 44.5801 2.53906ZM20.166-26.8066L33.5449-43.9453C33.9844-44.4824 34.4238-44.7266 34.9609-44.7266C35.3027-44.7266 35.6934-44.6289 36.084-44.4336L54.1016-34.7168L67.2363-42.0898C68.7988-42.9688 69.9219-41.6016 68.8965-40.2344L55.6152-23.0957C55.2246-22.5586 54.7363-22.3145 54.1992-22.3145C53.8574-22.3145 53.4668-22.4121 53.0273-22.6562L35.0586-32.3242L21.8262-24.9023C20.4102-24.1211 19.0918-25.3906 20.166-26.8066Z"/>
  </g>
  <g id="Ultralight-S" transform="matrix(1 0 0 1 515.644 696)">
   <path d="M44.043 2.00195C64.502 2.00195 81.2988-14.7461 81.2988-35.2051C81.2988-55.6641 64.502-72.4121 44.043-72.4121C23.584-72.4121 6.83594-55.6641 6.83594-35.2051C6.83594-14.7461 23.584 2.00195 44.043 2.00195ZM20.1172-26.4648L33.5449-43.6035C33.7891-43.9453 34.1309-44.0918 34.5215-44.0918C34.7168-44.0918 35.0098-44.043 35.2051-43.8965L53.6133-33.9844L66.748-41.5527C67.9688-42.2363 68.75-41.2109 67.9688-40.1367L54.7363-23.0469C54.4434-22.7051 54.1016-22.5586 53.7598-22.5586C53.4668-22.5586 53.2227-22.6074 52.9297-22.7539L34.6191-32.666L21.3867-25.0488C20.2637-24.4629 19.2871-25.3906 20.1172-26.4648Z"/>
  </g>
 </g>
</svg>
