<?xml version="1.0" encoding="UTF-8"?>
<!--Generator: Apple Native CoreSVG 149-->
<!DOCTYPE svg
PUBLIC "-//W3C//DTD SVG 1.1//EN"
       "http://www.w3.org/Graphics/SVG/1.1/DTD/svg11.dtd">
<svg version="1.1" xmlns="http://www.w3.org/2000/svg" xmlns:xlink="http://www.w3.org/1999/xlink" width="3300" height="2200">
 <!--glyph: "uni10025F.medium", point size: 100.000000, font version: "Version 16.0d12e3", template writer version: "8"-->
 <g id="Notes">
  <rect height="2200" id="artboard" style="fill:white;opacity:1" width="3300" x="0" y="0"/>
  <line id="" style="fill:none;stroke:black;opacity:1;stroke-width:0.5;" x1="263" x2="3036" y1="292" y2="292"/>
  <text style="stroke:none;fill:black;font-family:-apple-system,&quot;SF Pro Display&quot;,&quot;SF Pro Text&quot;,Helvetica,sans-serif;font-weight:bold;" transform="matrix(1 0 0 1 263 322)">Weight/Scale Variations</text>
  <text style="stroke:none;fill:black;font-family:-apple-system,&quot;SF Pro Display&quot;,&quot;SF Pro Text&quot;,Helvetica,sans-serif;text-anchor:middle;" transform="matrix(1 0 0 1 559.711 322)">Ultralight</text>
  <text style="stroke:none;fill:black;font-family:-apple-system,&quot;SF Pro Display&quot;,&quot;SF Pro Text&quot;,Helvetica,sans-serif;text-anchor:middle;" transform="matrix(1 0 0 1 856.422 322)">Thin</text>
  <text style="stroke:none;fill:black;font-family:-apple-system,&quot;SF Pro Display&quot;,&quot;SF Pro Text&quot;,Helvetica,sans-serif;text-anchor:middle;" transform="matrix(1 0 0 1 1153.13 322)">Light</text>
  <text style="stroke:none;fill:black;font-family:-apple-system,&quot;SF Pro Display&quot;,&quot;SF Pro Text&quot;,Helvetica,sans-serif;text-anchor:middle;" transform="matrix(1 0 0 1 1449.84 322)">Regular</text>
  <text style="stroke:none;fill:black;font-family:-apple-system,&quot;SF Pro Display&quot;,&quot;SF Pro Text&quot;,Helvetica,sans-serif;text-anchor:middle;" transform="matrix(1 0 0 1 1746.56 322)">Medium</text>
  <text style="stroke:none;fill:black;font-family:-apple-system,&quot;SF Pro Display&quot;,&quot;SF Pro Text&quot;,Helvetica,sans-serif;text-anchor:middle;" transform="matrix(1 0 0 1 2043.27 322)">Semibold</text>
  <text style="stroke:none;fill:black;font-family:-apple-system,&quot;SF Pro Display&quot;,&quot;SF Pro Text&quot;,Helvetica,sans-serif;text-anchor:middle;" transform="matrix(1 0 0 1 2339.98 322)">Bold</text>
  <text style="stroke:none;fill:black;font-family:-apple-system,&quot;SF Pro Display&quot;,&quot;SF Pro Text&quot;,Helvetica,sans-serif;text-anchor:middle;" transform="matrix(1 0 0 1 2636.69 322)">Heavy</text>
  <text style="stroke:none;fill:black;font-family:-apple-system,&quot;SF Pro Display&quot;,&quot;SF Pro Text&quot;,Helvetica,sans-serif;text-anchor:middle;" transform="matrix(1 0 0 1 2933.4 322)">Black</text>
  <line id="" style="fill:none;stroke:black;opacity:1;stroke-width:0.5;" x1="263" x2="3036" y1="1903" y2="1903"/>
  <g id="" transform="matrix(1 0 0 1 263 1933)">
   <path d="M9.24805 0.830078C13.5547 0.830078 17.1387-2.74414 17.1387-7.05078C17.1387-11.3574 13.5449-14.9316 9.23828-14.9316C4.94141-14.9316 1.36719-11.3574 1.36719-7.05078C1.36719-2.74414 4.95117 0.830078 9.24805 0.830078ZM9.24805-0.654297C5.70312-0.654297 2.87109-3.49609 2.87109-7.05078C2.87109-10.6055 5.69336-13.4473 9.23828-13.4473C12.793-13.4473 15.6348-10.6055 15.6445-7.05078C15.6543-3.49609 12.8027-0.654297 9.24805-0.654297ZM9.22852-3.62305C9.69727-3.62305 9.9707-3.93555 9.9707-4.45312L9.9707-6.31836L12.002-6.31836C12.5-6.31836 12.832-6.57227 12.832-7.04102C12.832-7.51953 12.5195-7.7832 12.002-7.7832L9.9707-7.7832L9.9707-9.81445C9.9707-10.332 9.69727-10.6543 9.22852-10.6543C8.75977-10.6543 8.50586-10.3125 8.50586-9.81445L8.50586-7.7832L6.49414-7.7832C5.97656-7.7832 5.64453-7.51953 5.64453-7.04102C5.64453-6.57227 5.99609-6.31836 6.49414-6.31836L8.50586-6.31836L8.50586-4.45312C8.50586-3.95508 8.75977-3.62305 9.22852-3.62305Z"/>
  </g>
  <g id="" transform="matrix(1 0 0 1 281.506 1933)">
   <path d="M11.709 2.91016C17.1582 2.91016 21.6699-1.61133 21.6699-7.05078C21.6699-12.5 17.1484-17.0117 11.6992-17.0117C6.25977-17.0117 1.74805-12.5 1.74805-7.05078C1.74805-1.61133 6.26953 2.91016 11.709 2.91016ZM11.709 1.25C7.09961 1.25 3.41797-2.44141 3.41797-7.05078C3.41797-11.6602 7.08984-15.3516 11.6992-15.3516C16.3086-15.3516 20-11.6602 20.0098-7.05078C20.0195-2.44141 16.3184 1.25 11.709 1.25ZM11.6797-2.66602C12.207-2.66602 12.5098-3.01758 12.5098-3.59375L12.5098-6.23047L15.3223-6.23047C15.8691-6.23047 16.25-6.51367 16.25-7.03125C16.25-7.55859 15.8887-7.86133 15.3223-7.86133L12.5098-7.86133L12.5098-10.6836C12.5098-11.25 12.207-11.6113 11.6797-11.6113C11.1621-11.6113 10.8789-11.2305 10.8789-10.6836L10.8789-7.86133L8.07617-7.86133C7.50977-7.86133 7.13867-7.55859 7.13867-7.03125C7.13867-6.51367 7.5293-6.23047 8.07617-6.23047L10.8789-6.23047L10.8789-3.59375C10.8789-3.03711 11.1621-2.66602 11.6797-2.66602Z"/>
  </g>
  <g id="" transform="matrix(1 0 0 1 304.924 1933)">
   <path d="M14.9707 5.66406C21.9336 5.66406 27.6953-0.0976562 27.6953-7.05078C27.6953-14.0137 21.9238-19.7754 14.9609-19.7754C8.00781-19.7754 2.25586-14.0137 2.25586-7.05078C2.25586-0.0976562 8.01758 5.66406 14.9707 5.66406ZM14.9707 3.84766C8.93555 3.84766 4.08203-1.01562 4.08203-7.05078C4.08203-13.0957 8.92578-17.9492 14.9609-17.9492C21.0059-17.9492 25.8594-13.0957 25.8691-7.05078C25.8789-1.01562 21.0156 3.84766 14.9707 3.84766ZM14.9414-1.38672C15.5176-1.38672 15.8594-1.77734 15.8594-2.38281L15.8594-6.13281L19.7754-6.13281C20.3711-6.13281 20.7812-6.46484 20.7812-7.02148C20.7812-7.59766 20.3906-7.93945 19.7754-7.93945L15.8594-7.93945L15.8594-11.8652C15.8594-12.4805 15.5176-12.8711 14.9414-12.8711C14.375-12.8711 14.0527-12.4609 14.0527-11.8652L14.0527-7.93945L10.1465-7.93945C9.53125-7.93945 9.13086-7.59766 9.13086-7.02148C9.13086-6.46484 9.55078-6.13281 10.1465-6.13281L14.0527-6.13281L14.0527-2.38281C14.0527-1.79688 14.375-1.38672 14.9414-1.38672Z"/>
  </g>
  <text style="stroke:none;fill:black;font-family:-apple-system,&quot;SF Pro Display&quot;,&quot;SF Pro Text&quot;,Helvetica,sans-serif;font-weight:bold;" transform="matrix(1 0 0 1 263 1953)">Design Variations</text>
  <text style="stroke:none;fill:black;font-family:-apple-system,&quot;SF Pro Display&quot;,&quot;SF Pro Text&quot;,Helvetica,sans-serif;" transform="matrix(1 0 0 1 263 1971)">Symbols are supported in up to nine weights and three scales.</text>
  <text style="stroke:none;fill:black;font-family:-apple-system,&quot;SF Pro Display&quot;,&quot;SF Pro Text&quot;,Helvetica,sans-serif;" transform="matrix(1 0 0 1 263 1989)">For optimal layout with text and other symbols, vertically align</text>
  <text style="stroke:none;fill:black;font-family:-apple-system,&quot;SF Pro Display&quot;,&quot;SF Pro Text&quot;,Helvetica,sans-serif;" transform="matrix(1 0 0 1 263 2007)">symbols with the adjacent text.</text>
  <line id="" style="fill:none;stroke:#00AEEF;stroke-width:0.5;opacity:1.0;" x1="776" x2="776" y1="1919" y2="1933"/>
  <g id="" transform="matrix(1 0 0 1 776 1933)">
   <path d="M3.31055 0.126953C3.82812 0.126953 4.08203-0.0683594 4.26758-0.605469L5.52734-4.0625L11.2891-4.0625L12.5488-0.605469C12.7344-0.0683594 12.9883 0.126953 13.4961 0.126953C14.0137 0.126953 14.3457-0.185547 14.3457-0.673828C14.3457-0.839844 14.3164-0.986328 14.2383-1.20117L9.6582-13.3887C9.43359-13.9941 9.0332-14.2871 8.4082-14.2871C7.80273-14.2871 7.39258-13.9941 7.17773-13.3984L2.59766-1.19141C2.51953-0.976562 2.49023-0.830078 2.49023-0.664062C2.49023-0.175781 2.80273 0.126953 3.31055 0.126953ZM6.00586-5.53711L8.37891-12.1094L8.42773-12.1094L10.8008-5.53711Z"/>
  </g>
  <line id="" style="fill:none;stroke:#00AEEF;stroke-width:0.5;opacity:1.0;" x1="792.836" x2="792.836" y1="1919" y2="1933"/>
  <text style="stroke:none;fill:black;font-family:-apple-system,&quot;SF Pro Display&quot;,&quot;SF Pro Text&quot;,Helvetica,sans-serif;font-weight:bold;" transform="matrix(1 0 0 1 776 1953)">Margins</text>
  <text style="stroke:none;fill:black;font-family:-apple-system,&quot;SF Pro Display&quot;,&quot;SF Pro Text&quot;,Helvetica,sans-serif;" transform="matrix(1 0 0 1 776 1971)">Leading and trailing margins on the left and right side of each symbol</text>
  <text style="stroke:none;fill:black;font-family:-apple-system,&quot;SF Pro Display&quot;,&quot;SF Pro Text&quot;,Helvetica,sans-serif;" transform="matrix(1 0 0 1 776 1989)">can be adjusted by modifying the x-location of the margin guidelines.</text>
  <text style="stroke:none;fill:black;font-family:-apple-system,&quot;SF Pro Display&quot;,&quot;SF Pro Text&quot;,Helvetica,sans-serif;" transform="matrix(1 0 0 1 776 2007)">Modifications are automatically applied proportionally to all</text>
  <text style="stroke:none;fill:black;font-family:-apple-system,&quot;SF Pro Display&quot;,&quot;SF Pro Text&quot;,Helvetica,sans-serif;" transform="matrix(1 0 0 1 776 2025)">scales and weights.</text>
  <g id="" transform="matrix(1 0 0 1 1289 1933)">
   <path d="M2.8418 1.86523L4.54102 3.57422C5.40039 4.44336 6.38672 4.38477 7.31445 3.35938L17.4902-7.85156C17.7539-7.76367 18.0273-7.7832 18.3398-7.8418L19.4043-8.03711L20.0684-7.36328L20.0293-6.80664C19.9902-6.30859 20.1172-5.92773 20.6055-5.44922L21.3672-4.70703C21.8457-4.22852 22.4609-4.19922 22.9297-4.66797L25.8398-7.58789C26.3086-8.05664 26.2891-8.65234 25.8105-9.13086L25.0391-9.89258C24.5605-10.3711 24.1895-10.5273 23.7109-10.4883L23.1348-10.4395L22.4902-11.0742L22.7344-12.1973C22.8613-12.7637 22.7051-13.2031 22.1191-13.7891L19.9219-15.9766C16.582-19.2969 12.1484-19.2188 9.25781-16.3281C8.83789-15.918 8.80859-15.3418 9.04297-14.9512C9.27734-14.5898 9.73633-14.3555 10.3809-14.5215C11.8457-14.8633 13.3691-14.9219 14.7949-13.9844L14.209-12.5293C14.0137-12.0508 13.9844-11.6504 14.1113-11.2891L3.04688-0.898438C2.06055 0.0195312 1.98242 0.996094 2.8418 1.86523ZM10.752-15.957C13.1836-17.7344 16.4746-17.4316 18.7012-15.2051L21.1328-12.793C21.3672-12.5586 21.4062-12.373 21.3379-12.0312L21.0156-10.5469L22.5195-9.0625L23.5059-9.12109C23.7598-9.13086 23.8379-9.11133 24.0332-8.91602L24.6094-8.33984L22.168-5.89844L21.5918-6.47461C21.3965-6.66992 21.3672-6.74805 21.377-7.01172L21.4453-7.98828L19.9512-9.47266L18.4277-9.21875C18.1055-9.15039 17.959-9.17969 17.7148-9.41406L15.7129-11.416C15.459-11.6504 15.4297-11.8164 15.5859-12.1875L16.4648-14.2773C14.9023-15.7324 12.8711-16.3574 10.8398-15.7617C10.6836-15.7227 10.625-15.8496 10.752-15.957ZM5.27344 2.30469L4.10156 1.14258C3.63281 0.683594 3.74023 0.341797 4.14062-0.0195312L14.9512-10.1953L16.416-8.71094L6.42578 2.27539C6.07422 2.67578 5.74219 2.77344 5.27344 2.30469Z"/>
  </g>
  <text style="stroke:none;fill:black;font-family:-apple-system,&quot;SF Pro Display&quot;,&quot;SF Pro Text&quot;,Helvetica,sans-serif;font-weight:bold;" transform="matrix(1 0 0 1 1289 1953)">Exporting</text>
  <text style="stroke:none;fill:black;font-family:-apple-system,&quot;SF Pro Display&quot;,&quot;SF Pro Text&quot;,Helvetica,sans-serif;" transform="matrix(1 0 0 1 1289 1971)">Symbols should be outlined when exporting to ensure the</text>
  <text style="stroke:none;fill:black;font-family:-apple-system,&quot;SF Pro Display&quot;,&quot;SF Pro Text&quot;,Helvetica,sans-serif;" transform="matrix(1 0 0 1 1289 1989)">design is preserved when submitting to Xcode.</text>
  <text id="template-version" style="stroke:none;fill:black;font-family:-apple-system,&quot;SF Pro Display&quot;,&quot;SF Pro Text&quot;,Helvetica,sans-serif;text-anchor:end;" transform="matrix(1 0 0 1 3036 1933)">Template v.2.0</text>
  <text style="stroke:none;fill:black;font-family:-apple-system,&quot;SF Pro Display&quot;,&quot;SF Pro Text&quot;,Helvetica,sans-serif;text-anchor:end;" transform="matrix(1 0 0 1 3036 1951)">Requires Xcode 12 or greater</text>
  <text style="stroke:none;fill:black;font-family:-apple-system,&quot;SF Pro Display&quot;,&quot;SF Pro Text&quot;,Helvetica,sans-serif;text-anchor:end;" transform="matrix(1 0 0 1 3036 1969)">Generated from bookmark.fill</text>
  <text style="stroke:none;fill:black;font-family:-apple-system,&quot;SF Pro Display&quot;,&quot;SF Pro Text&quot;,Helvetica,sans-serif;text-anchor:end;" transform="matrix(1 0 0 1 3036 1987)">Typeset at 100 points</text>
  <text style="stroke:none;fill:black;font-family:-apple-system,&quot;SF Pro Display&quot;,&quot;SF Pro Text&quot;,Helvetica,sans-serif;" transform="matrix(1 0 0 1 263 726)">Small</text>
  <text style="stroke:none;fill:black;font-family:-apple-system,&quot;SF Pro Display&quot;,&quot;SF Pro Text&quot;,Helvetica,sans-serif;" transform="matrix(1 0 0 1 263 1156)">Medium</text>
  <text style="stroke:none;fill:black;font-family:-apple-system,&quot;SF Pro Display&quot;,&quot;SF Pro Text&quot;,Helvetica,sans-serif;" transform="matrix(1 0 0 1 263 1586)">Large</text>
 </g>
 <g id="Guides">
  <g id="H-reference" style="fill:#27AAE1;stroke:none;" transform="matrix(1 0 0 1 339 696)">
   <path d="M0.976562 0L3.66211 0L12.9883-24.4629L45.752-24.4629L55.127 0L57.7637 0L30.6152-70.459L28.125-70.459ZM29.3457-67.1387L29.4434-67.1387L44.873-26.709L13.8672-26.709Z"/>
  </g>
  <line id="Baseline-S" style="fill:none;stroke:#27AAE1;opacity:1;stroke-width:0.5;" x1="263" x2="3036" y1="696" y2="696"/>
  <line id="Capline-S" style="fill:none;stroke:#27AAE1;opacity:1;stroke-width:0.5;" x1="263" x2="3036" y1="625.541" y2="625.541"/>
  <g id="H-reference" style="fill:#27AAE1;stroke:none;" transform="matrix(1 0 0 1 339 1126)">
   <path d="M0.976562 0L3.66211 0L12.9883-24.4629L45.752-24.4629L55.127 0L57.7637 0L30.6152-70.459L28.125-70.459ZM29.3457-67.1387L29.4434-67.1387L44.873-26.709L13.8672-26.709Z"/>
  </g>
  <line id="Baseline-M" style="fill:none;stroke:#27AAE1;opacity:1;stroke-width:0.5;" x1="263" x2="3036" y1="1126" y2="1126"/>
  <line id="Capline-M" style="fill:none;stroke:#27AAE1;opacity:1;stroke-width:0.5;" x1="263" x2="3036" y1="1055.54" y2="1055.54"/>
  <g id="H-reference" style="fill:#27AAE1;stroke:none;" transform="matrix(1 0 0 1 339 1556)">
   <path d="M0.976562 0L3.66211 0L12.9883-24.4629L45.752-24.4629L55.127 0L57.7637 0L30.6152-70.459L28.125-70.459ZM29.3457-67.1387L29.4434-67.1387L44.873-26.709L13.8672-26.709Z"/>
  </g>
  <line id="Baseline-L" style="fill:none;stroke:#27AAE1;opacity:1;stroke-width:0.5;" x1="263" x2="3036" y1="1556" y2="1556"/>
  <line id="Capline-L" style="fill:none;stroke:#27AAE1;opacity:1;stroke-width:0.5;" x1="263" x2="3036" y1="1485.54" y2="1485.54"/>
  <line id="left-margin" style="fill:none;stroke:#00AEEF;stroke-width:0.5;opacity:1.0;" x1="1398.87" x2="1398.87" y1="1030.79" y2="1150.12"/>
  <line id="right-margin" style="fill:none;stroke:#00AEEF;stroke-width:0.5;opacity:1.0;" x1="1500.82" x2="1500.82" y1="1030.79" y2="1150.12"/>
 </g>
 <g id="Symbols">
  <g id="Black-L" transform="matrix(1 0 0 1 2860.91 1556)">
   <path d="M36.377 39.7949C40.9668 39.7949 44.2383 37.8418 49.0234 33.1055L72.0215 10.1074C72.2656 9.81445 72.7051 9.81445 72.9492 10.1074L95.9961 33.1543C100.83 37.9395 103.955 39.7949 108.594 39.7949C116.357 39.7949 121.631 34.2285 121.631 25.9277L121.631-85.791C121.631-100.146 113.281-108.496 98.9746-108.496L45.9961-108.496C31.6406-108.496 23.3398-100.146 23.3398-85.791L23.3398 25.9277C23.3398 34.2285 28.5645 39.7949 36.377 39.7949Z"/>
  </g>
  <g id="Heavy-L" transform="matrix(1 0 0 1 2565.99 1556)">
   <path d="M34.7168 37.793C38.8672 37.793 41.7969 35.9863 46.5332 31.25L70.2148 7.56836C70.459 7.27539 70.8984 7.27539 71.1914 7.56836L94.9219 31.2988C99.707 35.9863 102.49 37.793 106.689 37.793C113.525 37.793 118.066 32.959 118.066 25.5859L118.066-85.498C118.066-99.2188 110.352-106.934 96.7285-106.934L44.6777-106.934C31.0547-106.934 23.3398-99.2188 23.3398-85.498L23.3398 25.5859C23.3398 32.959 27.8809 37.793 34.7168 37.793Z"/>
  </g>
  <g id="Bold-L" transform="matrix(1 0 0 1 2271.28 1556)">
   <path d="M32.8613 35.5469C36.5234 35.5469 39.0137 33.8379 43.75 29.1504L68.2129 4.73633C68.457 4.44336 68.9453 4.44336 69.2383 4.73633L93.6523 29.1992C98.4375 33.8379 100.83 35.5469 104.541 35.5469C110.303 35.5469 114.062 31.4941 114.062 25.1465L114.062-85.2051C114.062-98.1445 107.031-105.225 94.1895-105.225L43.2129-105.225C30.4199-105.225 23.3398-98.1445 23.3398-85.2051L23.3398 25.1465C23.3398 31.4941 27.0996 35.5469 32.8613 35.5469Z"/>
  </g>
  <g id="Semibold-L" transform="matrix(1 0 0 1 1975.93 1556)">
   <path d="M31.5918 34.0332C34.9121 34.0332 37.1094 32.373 41.8457 27.7344L66.7969 2.7832C67.0898 2.49023 67.5781 2.49023 67.8711 2.7832L92.8223 27.7344C97.6074 32.373 99.707 34.0332 103.076 34.0332C108.105 34.0332 111.328 30.5176 111.328 24.9023L111.328-85.0098C111.328-97.4121 104.736-104.053 92.4316-104.053L42.2363-104.053C29.9316-104.053 23.3398-97.4121 23.3398-85.0098L23.3398 24.9023C23.3398 30.5176 26.5625 34.0332 31.5918 34.0332Z"/>
  </g>
  <g id="Medium-L" transform="matrix(1 0 0 1 1680.25 1556)">
   <path d="M30.6641 32.8613C33.6914 32.8613 35.6934 31.2988 40.4297 26.6113L65.7715 1.26953C66.0645 0.976562 66.5527 0.976562 66.8457 1.26953L92.1875 26.6602C96.9238 31.25 98.877 32.8613 101.953 32.8613C106.445 32.8613 109.277 29.7363 109.277 24.6582L109.277-84.8633C109.277-96.8262 102.979-103.125 91.1133-103.125L41.4551-103.125C29.5898-103.125 23.3398-96.8262 23.3398-84.8633L23.3398 24.6582C23.3398 29.7363 26.123 32.8613 30.6641 32.8613Z"/>
  </g>
  <g id="Regular-L" transform="matrix(1 0 0 1 1384.9 1556)">
   <path d="M29.3945 31.3477C32.0801 31.3477 33.7891 29.834 38.5254 25.1953L64.4043-0.634766C64.6973-0.927734 65.1855-0.927734 65.4785-0.634766L91.3574 25.1953C96.0938 29.7852 97.7539 31.3477 100.488 31.3477C104.297 31.3477 106.543 28.7598 106.543 24.3652L106.543-84.668C106.543-96.0938 100.732-101.953 89.4043-101.953L40.4785-101.953C29.1504-101.953 23.3398-96.0938 23.3398-84.668L23.3398 24.3652C23.3398 28.7598 25.5859 31.3477 29.3945 31.3477Z"/>
  </g>
  <g id="Light-L" transform="matrix(1 0 0 1 1089.36 1556)">
   <path d="M28.5645 30.0781C30.7617 30.0781 32.2754 28.9551 35.6934 25.5371L63.2812-2.49023C63.5254-2.7832 63.9648-2.7832 64.2578-2.49023L91.7969 25.5371C95.2637 28.9062 96.7285 30.0781 98.9746 30.0781C102.197 30.0781 104.199 27.832 104.199 24.1699L104.199-84.375C104.199-95.1172 98.6328-100.684 88.0371-100.684L39.502-100.684C28.8574-100.684 23.3398-95.1172 23.3398-84.375L23.3398 24.1699C23.3398 27.832 25.3418 30.0781 28.5645 30.0781Z"/>
  </g>
  <g id="Thin-L" transform="matrix(1 0 0 1 794.215 1556)">
   <path d="M27.4414 28.4668C28.9551 28.4668 30.2246 27.7832 31.9824 25.9766L61.7676-4.93164C62.0117-5.17578 62.3535-5.17578 62.5977-4.93164L92.4316 25.9766C94.1406 27.6855 95.3613 28.4668 96.9727 28.4668C99.4141 28.4668 101.074 26.6602 101.074 23.9258L101.074-84.0332C101.074-93.8477 95.8984-99.0234 86.1816-99.0234L38.2324-99.0234C28.5156-99.0234 23.3398-93.8477 23.3398-84.0332L23.3398 23.9258C23.3398 26.6602 24.9512 28.4668 27.4414 28.4668Z"/>
  </g>
  <g id="Ultralight-L" transform="matrix(1 0 0 1 498.31 1556)">
   <path d="M26.8555 27.6367C28.0273 27.6367 29.1992 27.1484 30.0781 26.2207L60.9863-6.20117C61.2305-6.44531 61.5234-6.44531 61.7676-6.20117L92.7246 26.2207C93.6035 27.0996 94.6777 27.6367 95.9473 27.6367C97.998 27.6367 99.4629 26.0254 99.4629 23.7793L99.4629-83.8379C99.4629-93.1641 94.4824-98.1445 85.2051-98.1445L37.5977-98.1445C28.3203-98.1445 23.3398-93.1641 23.3398-83.8379L23.3398 23.7793C23.3398 26.0254 24.7559 27.6367 26.8555 27.6367Z"/>
  </g>
  <g id="Black-M" transform="matrix(1 0 0 1 2875.49 1126)">
   <path d="M29.9316 24.9023C33.8379 24.9023 36.7676 23.4863 39.7949 20.4102L57.6172 2.34375C57.8125 2.14844 58.0566 2.14844 58.2031 2.34375L76.123 20.5078C79.1504 23.5352 81.9336 24.9023 85.8887 24.9023C92.8711 24.9023 97.7539 19.873 97.7539 12.5977L97.7539-74.6094C97.7539-86.3281 90.6738-93.4082 78.9551-93.4082L36.8652-93.4082C25.1465-93.4082 18.0664-86.3281 18.0664-74.6094L18.0664 12.5977C18.0664 19.873 22.9492 24.9023 29.9316 24.9023Z"/>
  </g>
  <g id="Heavy-M" transform="matrix(1 0 0 1 2580.41 1126)">
   <path d="M28.3691 23.0469C31.8848 23.0469 34.4727 21.6309 37.793 18.3105L55.957 0.0488281C56.1523-0.146484 56.4453-0.146484 56.6406 0.0488281L74.8047 18.3594C78.1738 21.6797 80.6152 23.0469 84.1797 23.0469C90.332 23.0469 94.4824 18.7012 94.4824 12.207L94.4824-74.4141C94.4824-85.498 87.9883-92.041 76.8555-92.041L35.6934-92.041C24.6094-92.041 18.0664-85.498 18.0664-74.4141L18.0664 12.207C18.0664 18.7012 22.2168 23.0469 28.3691 23.0469Z"/>
  </g>
  <g id="Bold-M" transform="matrix(1 0 0 1 2285.53 1126)">
   <path d="M26.5625 20.9961C29.7363 20.9961 31.9336 19.5801 35.5957 15.918L54.0527-2.53906C54.2969-2.73438 54.6387-2.73438 54.834-2.53906L73.291 15.9668C77.0508 19.6289 79.1504 20.9961 82.3242 20.9961C87.4512 20.9961 90.8203 17.3828 90.8203 11.8164L90.8203-74.1699C90.8203-84.6191 84.9609-90.5273 74.5117-90.5273L34.375-90.5273C23.9258-90.5273 18.0664-84.6191 18.0664-74.1699L18.0664 11.8164C18.0664 17.3828 21.4355 20.9961 26.5625 20.9961Z"/>
  </g>
  <g id="Semibold-M" transform="matrix(1 0 0 1 1990.09 1126)">
   <path d="M25.3906 19.5801C28.2227 19.5801 30.127 18.1641 34.082 14.2578L52.7832-4.29688C52.9785-4.49219 53.3691-4.49219 53.6133-4.29688L72.2656 14.3066C76.2695 18.1641 78.125 19.5801 81.0059 19.5801C85.4492 19.5801 88.2812 16.4551 88.2812 11.5723L88.2812-73.9746C88.2812-84.0332 82.8613-89.502 72.9004-89.502L33.4473-89.502C23.4863-89.502 18.0664-84.0332 18.0664-73.9746L18.0664 11.5723C18.0664 16.4551 20.8984 19.5801 25.3906 19.5801Z"/>
  </g>
  <g id="Medium-M" transform="matrix(1 0 0 1 1694.33 1126)">
   <path d="M24.4629 18.457C27.0996 18.457 28.8086 17.0898 32.959 13.0371L51.8066-5.61523C52.002-5.85938 52.4414-5.85938 52.6367-5.61523L71.5332 13.0371C75.6836 17.0898 77.3438 18.457 80.0293 18.457C83.9355 18.457 86.377 15.7715 86.377 11.377L86.377-73.877C86.377-83.5938 81.2988-88.7207 71.6797-88.7207L32.7637-88.7207C23.1445-88.7207 18.0664-83.5938 18.0664-73.877L18.0664 11.377C18.0664 15.7715 20.5078 18.457 24.4629 18.457Z"/>
  </g>
  <g id="Regular-M" transform="matrix(1 0 0 1 1398.87 1126)">
   <path d="M23.2422 17.041C25.6348 17.041 27.0508 15.6738 31.4453 11.4258L50.5371-7.37305C50.7812-7.61719 51.2207-7.61719 51.416-7.37305L70.5078 11.4258C74.9023 15.6738 76.3184 17.041 78.7109 17.041C81.9824 17.041 83.8867 14.8926 83.8867 11.084L83.8867-73.6816C83.8867-82.959 79.248-87.6953 70.0684-87.6953L31.8848-87.6953C22.7051-87.6953 18.0664-82.959 18.0664-73.6816L18.0664 11.084C18.0664 14.8926 19.9707 17.041 23.2422 17.041Z"/>
  </g>
  <g id="Light-M" transform="matrix(1 0 0 1 1103.21 1126)">
   <path d="M22.4609 15.9668C24.4141 15.9668 25.6836 14.8926 28.9062 11.7188L49.5117-9.0332C49.707-9.27734 50.0977-9.27734 50.3418-9.0332L70.8984 11.7188C74.1699 14.8926 75.3906 15.9668 77.3438 15.9668C80.127 15.9668 81.7871 14.0625 81.7871 10.8887L81.7871-73.4375C81.7871-82.0801 77.3438-86.5234 68.7988-86.5234L31.0059-86.5234C22.4609-86.5234 18.0664-82.0801 18.0664-73.4375L18.0664 10.8887C18.0664 14.0625 19.7266 15.9668 22.4609 15.9668Z"/>
  </g>
  <g id="Thin-M" transform="matrix(1 0 0 1 807.911 1126)">
   <path d="M21.4844 14.502C22.8027 14.502 23.8281 13.8672 25.5859 12.1094L48.1934-11.2305C48.3887-11.4258 48.6816-11.4258 48.877-11.2305L71.4844 12.1094C73.1934 13.8184 74.1699 14.502 75.5859 14.502C77.6367 14.502 78.9551 12.9883 78.9551 10.6445L78.9551-73.1445C78.9551-80.9082 74.9023-85.0098 67.1387-85.0098L29.8828-85.0098C22.168-85.0098 18.0664-80.9082 18.0664-73.1445L18.0664 10.6445C18.0664 12.9883 19.3848 14.502 21.4844 14.502Z"/>
  </g>
  <g id="Ultralight-M" transform="matrix(1 0 0 1 511.908 1126)">
   <path d="M20.9473 13.7207C21.9727 13.7207 22.9004 13.3301 23.8281 12.3047L47.5098-12.3535C47.6562-12.5488 47.9004-12.5488 48.0957-12.3535L71.7285 12.3047C72.7051 13.2324 73.5352 13.7207 74.6582 13.7207C76.3672 13.7207 77.5391 12.4512 77.5391 10.5469L77.5391-72.9492C77.5391-80.3223 73.6328-84.2285 66.3086-84.2285L29.2969-84.2285C21.9727-84.2285 18.0664-80.3223 18.0664-72.9492L18.0664 10.5469C18.0664 12.4512 19.2383 13.7207 20.9473 13.7207Z"/>
  </g>
  <g id="Black-S" transform="matrix(1 0 0 1 2888.14 696)">
   <path d="M23.3398 11.7676C26.3672 11.7676 28.6621 10.6445 31.0547 8.20312L45.0195-5.95703C45.166-6.10352 45.3613-6.10352 45.5078-5.95703L59.5215 8.25195C61.9629 10.6934 64.1113 11.7676 67.1875 11.7676C72.6074 11.7676 76.3672 7.86133 76.3672 2.19727L76.3672-66.0645C76.3672-75.1953 70.8496-80.7129 61.7188-80.7129L28.8086-80.7129C19.6777-80.7129 14.1602-75.1953 14.1602-66.0645L14.1602 2.19727C14.1602 7.86133 17.9199 11.7676 23.3398 11.7676Z"/>
  </g>
  <g id="Heavy-S" transform="matrix(1 0 0 1 2592.55 696)">
   <path d="M22.2168 10.4492C25 10.4492 27.0508 9.32617 29.834 6.54297L43.8477-7.51953C43.9941-7.66602 44.2383-7.66602 44.3848-7.51953L58.4473 6.5918C61.2793 9.375 63.1836 10.4492 66.0645 10.4492C70.8496 10.4492 74.1211 7.03125 74.1211 1.95312L74.1211-65.918C74.1211-74.707 68.9941-79.7852 60.2539-79.7852L28.0273-79.7852C19.2871-79.7852 14.1602-74.707 14.1602-65.918L14.1602 1.95312C14.1602 7.03125 17.4316 10.4492 22.2168 10.4492Z"/>
  </g>
  <g id="Bold-S" transform="matrix(1 0 0 1 2297.11 696)">
   <path d="M20.9473 9.0332C23.5352 9.0332 25.2441 7.86133 28.4668 4.6875L42.5293-9.27734C42.7246-9.47266 43.0176-9.47266 43.1641-9.27734L57.2754 4.6875C60.498 7.86133 62.207 9.0332 64.7461 9.0332C68.8965 9.0332 71.582 6.15234 71.582 1.66016L71.582-65.7715C71.582-74.1211 66.9434-78.8086 58.6426-78.8086L27.0996-78.8086C18.7988-78.8086 14.1602-74.1211 14.1602-65.7715L14.1602 1.66016C14.1602 6.15234 16.8457 9.0332 20.9473 9.0332Z"/>
  </g>
  <g id="Semibold-S" transform="matrix(1 0 0 1 2001.27 696)">
   <path d="M20.1172 8.00781C22.4609 8.00781 24.0234 6.83594 27.5391 3.41797L41.6504-10.498C41.8457-10.6934 42.1387-10.6934 42.334-10.498L56.4453 3.41797C60.0098 6.83594 61.4746 8.00781 63.8672 8.00781C67.5293 8.00781 69.8242 5.51758 69.8242 1.46484L69.8242-65.6738C69.8242-73.7305 65.4785-78.0762 57.4707-78.0762L26.4648-78.0762C18.5059-78.0762 14.1602-73.7305 14.1602-65.6738L14.1602 1.46484C14.1602 5.51758 16.4551 8.00781 20.1172 8.00781Z"/>
  </g>
  <g id="Medium-S" transform="matrix(1 0 0 1 1705.22 696)">
   <path d="M19.4336 7.27539C21.6797 7.27539 23.0957 6.05469 26.8066 2.44141L40.9668-11.4258C41.1621-11.6211 41.5039-11.6211 41.6992-11.4258L55.8594 2.44141C59.5703 6.05469 60.9375 7.27539 63.2324 7.27539C66.5039 7.27539 68.5059 5.0293 68.5059 1.31836L68.5059-65.5762C68.5059-73.4375 64.4043-77.5879 56.6406-77.5879L26.0254-77.5879C18.2617-77.5879 14.1602-73.4375 14.1602-65.5762L14.1602 1.31836C14.1602 5.0293 16.1621 7.27539 19.4336 7.27539Z"/>
  </g>
  <g id="Regular-S" transform="matrix(1 0 0 1 1409.39 696)">
   <path d="M18.6035 6.25C20.6543 6.25 21.875 5.0293 25.8789 1.17188L40.0879-12.5977C40.2832-12.793 40.6738-12.793 40.8203-12.5977L55.0293 1.17188C59.082 5.0293 60.2539 6.25 62.3535 6.25C65.1367 6.25 66.748 4.39453 66.748 1.12305L66.748-65.4785C66.748-73.0469 62.9883-76.8555 55.5176-76.8555L25.3906-76.8555C17.9199-76.8555 14.1602-73.0469 14.1602-65.4785L14.1602 1.12305C14.1602 4.39453 15.7715 6.25 18.6035 6.25Z"/>
  </g>
  <g id="Light-S" transform="matrix(1 0 0 1 1113.61 696)">
   <path d="M17.9199 5.27344C19.5801 5.27344 20.6543 4.3457 23.6328 1.41602L39.1602-14.0625C39.3555-14.2578 39.6973-14.2578 39.8438-14.0625L55.4199 1.41602C58.3984 4.3457 59.4238 5.27344 61.1328 5.27344C63.4766 5.27344 64.8926 3.71094 64.8926 0.976562L64.8926-65.2832C64.8926-72.2656 61.3281-75.8789 54.3945-75.8789L24.6582-75.8789C17.7246-75.8789 14.1602-72.2656 14.1602-65.2832L14.1602 0.976562C14.1602 3.71094 15.5762 5.27344 17.9199 5.27344Z"/>
  </g>
  <g id="Thin-S" transform="matrix(1 0 0 1 818.141 696)">
   <path d="M17.041 4.00391C18.1641 4.00391 19.043 3.41797 20.6543 1.75781L37.9883-16.0156C38.1836-16.1621 38.4277-16.1621 38.5742-16.0156L55.9082 1.75781C57.5195 3.36914 58.3496 4.00391 59.5703 4.00391C61.2793 4.00391 62.4023 2.73438 62.4023 0.78125L62.4023-64.9902C62.4023-71.2402 59.1309-74.5117 52.9297-74.5117L23.6328-74.5117C17.4316-74.5117 14.1602-71.2402 14.1602-64.9902L14.1602 0.78125C14.1602 2.73438 15.2832 4.00391 17.041 4.00391Z"/>
  </g>
  <g id="Ultralight-S" transform="matrix(1 0 0 1 522.065 696)">
   <path d="M16.5527 3.32031C17.4316 3.32031 18.2129 2.92969 19.1406 1.95312L37.4023-16.9922C37.5488-17.1387 37.7441-17.1387 37.8906-16.9922L56.1523 1.95312C57.0801 2.88086 57.8125 3.32031 58.7402 3.32031C60.1562 3.32031 61.1328 2.24609 61.1328 0.683594L61.1328-64.8438C61.1328-70.7031 58.0078-73.8281 52.1973-73.8281L23.0957-73.8281C17.2852-73.8281 14.1602-70.7031 14.1602-64.8438L14.1602 0.683594C14.1602 2.24609 15.1367 3.32031 16.5527 3.32031Z"/>
  </g>
 </g>
</svg>
