<svg xmlns="http://www.w3.org/2000/svg" viewBox="0 0 65.82 104.74"><g id="Слой_2" data-name="Слой 2"><g id="Слой_1-2" data-name="Слой 1"><g id="Regular-M"><path d="M5.18,104.74c2.39,0,3.8-1.37,8.2-5.62l19.09-18.8a.63.63,0,0,1,.88,0l19.09,18.8c4.4,4.25,5.81,5.62,8.2,5.62,3.28,0,5.18-2.15,5.18-6V14C65.82,4.74,61.18,0,52,0H13.82C4.64,0,0,4.74,0,14V98.78C0,102.59,1.9,104.74,5.18,104.74Zm4-13.19c-.68.69-1.47.49-1.47-.49V14.11c0-4.2,2.2-6.4,6.5-6.4H51.66c4.25,0,6.45,2.2,6.45,6.4v77c0,1-.74,1.18-1.47.49L35.5,71a3.53,3.53,0,0,0-5.18,0Z"/></g></g></g></svg>