<svg xmlns="http://www.w3.org/2000/svg" viewBox="0 0 99.61 99.61"><g id="Слой_2" data-name="Слой 2"><g id="Слой_1-2" data-name="Слой 1"><g id="Regular-M"><path d="M49.8,99.61A50.15,50.15,0,0,0,99.61,49.8C99.61,22.61,77,0,49.76,0S0,22.61,0,49.8A50.18,50.18,0,0,0,49.8,99.61ZM34.86,76.51c-1.66,0-2.73-1.22-2.73-3.22V30.86c0-4.88,2.54-7.47,7.42-7.47H60c4.88,0,7.42,2.59,7.42,7.47V73.29c0,2-1.07,3.22-2.73,3.22-1.32,0-2.05-.78-4.35-3L50,63.38a.32.32,0,0,0-.49,0L39.26,73.49C36.91,75.73,36.18,76.51,34.86,76.51Z"/></g></g></g></svg>