<?xml version="1.0" encoding="UTF-8"?>
<!--Generator: Apple Native CoreSVG 149-->
<!DOCTYPE svg
PUBLIC "-//W3C//DTD SVG 1.1//EN"
       "http://www.w3.org/Graphics/SVG/1.1/DTD/svg11.dtd">
<svg version="1.1" xmlns="http://www.w3.org/2000/svg" xmlns:xlink="http://www.w3.org/1999/xlink" width="3300" height="2200">
 <!--glyph: "uni100261.medium", point size: 100.000000, font version: "Version 16.0d12e3", template writer version: "8"-->
 <g id="Notes">
  <rect height="2200" id="artboard" style="fill:white;opacity:1" width="3300" x="0" y="0"/>
  <line id="" style="fill:none;stroke:black;opacity:1;stroke-width:0.5;" x1="263" x2="3036" y1="292" y2="292"/>
  <text style="stroke:none;fill:black;font-family:-apple-system,&quot;SF Pro Display&quot;,&quot;SF Pro Text&quot;,Helvetica,sans-serif;font-weight:bold;" transform="matrix(1 0 0 1 263 322)">Weight/Scale Variations</text>
  <text style="stroke:none;fill:black;font-family:-apple-system,&quot;SF Pro Display&quot;,&quot;SF Pro Text&quot;,Helvetica,sans-serif;text-anchor:middle;" transform="matrix(1 0 0 1 559.711 322)">Ultralight</text>
  <text style="stroke:none;fill:black;font-family:-apple-system,&quot;SF Pro Display&quot;,&quot;SF Pro Text&quot;,Helvetica,sans-serif;text-anchor:middle;" transform="matrix(1 0 0 1 856.422 322)">Thin</text>
  <text style="stroke:none;fill:black;font-family:-apple-system,&quot;SF Pro Display&quot;,&quot;SF Pro Text&quot;,Helvetica,sans-serif;text-anchor:middle;" transform="matrix(1 0 0 1 1153.13 322)">Light</text>
  <text style="stroke:none;fill:black;font-family:-apple-system,&quot;SF Pro Display&quot;,&quot;SF Pro Text&quot;,Helvetica,sans-serif;text-anchor:middle;" transform="matrix(1 0 0 1 1449.84 322)">Regular</text>
  <text style="stroke:none;fill:black;font-family:-apple-system,&quot;SF Pro Display&quot;,&quot;SF Pro Text&quot;,Helvetica,sans-serif;text-anchor:middle;" transform="matrix(1 0 0 1 1746.56 322)">Medium</text>
  <text style="stroke:none;fill:black;font-family:-apple-system,&quot;SF Pro Display&quot;,&quot;SF Pro Text&quot;,Helvetica,sans-serif;text-anchor:middle;" transform="matrix(1 0 0 1 2043.27 322)">Semibold</text>
  <text style="stroke:none;fill:black;font-family:-apple-system,&quot;SF Pro Display&quot;,&quot;SF Pro Text&quot;,Helvetica,sans-serif;text-anchor:middle;" transform="matrix(1 0 0 1 2339.98 322)">Bold</text>
  <text style="stroke:none;fill:black;font-family:-apple-system,&quot;SF Pro Display&quot;,&quot;SF Pro Text&quot;,Helvetica,sans-serif;text-anchor:middle;" transform="matrix(1 0 0 1 2636.69 322)">Heavy</text>
  <text style="stroke:none;fill:black;font-family:-apple-system,&quot;SF Pro Display&quot;,&quot;SF Pro Text&quot;,Helvetica,sans-serif;text-anchor:middle;" transform="matrix(1 0 0 1 2933.4 322)">Black</text>
  <line id="" style="fill:none;stroke:black;opacity:1;stroke-width:0.5;" x1="263" x2="3036" y1="1903" y2="1903"/>
  <g id="" transform="matrix(1 0 0 1 263 1933)">
   <path d="M9.24805 0.830078C13.5547 0.830078 17.1387-2.74414 17.1387-7.05078C17.1387-11.3574 13.5449-14.9316 9.23828-14.9316C4.94141-14.9316 1.36719-11.3574 1.36719-7.05078C1.36719-2.74414 4.95117 0.830078 9.24805 0.830078ZM9.24805-0.654297C5.70312-0.654297 2.87109-3.49609 2.87109-7.05078C2.87109-10.6055 5.69336-13.4473 9.23828-13.4473C12.793-13.4473 15.6348-10.6055 15.6445-7.05078C15.6543-3.49609 12.8027-0.654297 9.24805-0.654297ZM9.22852-3.62305C9.69727-3.62305 9.9707-3.93555 9.9707-4.45312L9.9707-6.31836L12.002-6.31836C12.5-6.31836 12.832-6.57227 12.832-7.04102C12.832-7.51953 12.5195-7.7832 12.002-7.7832L9.9707-7.7832L9.9707-9.81445C9.9707-10.332 9.69727-10.6543 9.22852-10.6543C8.75977-10.6543 8.50586-10.3125 8.50586-9.81445L8.50586-7.7832L6.49414-7.7832C5.97656-7.7832 5.64453-7.51953 5.64453-7.04102C5.64453-6.57227 5.99609-6.31836 6.49414-6.31836L8.50586-6.31836L8.50586-4.45312C8.50586-3.95508 8.75977-3.62305 9.22852-3.62305Z"/>
  </g>
  <g id="" transform="matrix(1 0 0 1 281.506 1933)">
   <path d="M11.709 2.91016C17.1582 2.91016 21.6699-1.61133 21.6699-7.05078C21.6699-12.5 17.1484-17.0117 11.6992-17.0117C6.25977-17.0117 1.74805-12.5 1.74805-7.05078C1.74805-1.61133 6.26953 2.91016 11.709 2.91016ZM11.709 1.25C7.09961 1.25 3.41797-2.44141 3.41797-7.05078C3.41797-11.6602 7.08984-15.3516 11.6992-15.3516C16.3086-15.3516 20-11.6602 20.0098-7.05078C20.0195-2.44141 16.3184 1.25 11.709 1.25ZM11.6797-2.66602C12.207-2.66602 12.5098-3.01758 12.5098-3.59375L12.5098-6.23047L15.3223-6.23047C15.8691-6.23047 16.25-6.51367 16.25-7.03125C16.25-7.55859 15.8887-7.86133 15.3223-7.86133L12.5098-7.86133L12.5098-10.6836C12.5098-11.25 12.207-11.6113 11.6797-11.6113C11.1621-11.6113 10.8789-11.2305 10.8789-10.6836L10.8789-7.86133L8.07617-7.86133C7.50977-7.86133 7.13867-7.55859 7.13867-7.03125C7.13867-6.51367 7.5293-6.23047 8.07617-6.23047L10.8789-6.23047L10.8789-3.59375C10.8789-3.03711 11.1621-2.66602 11.6797-2.66602Z"/>
  </g>
  <g id="" transform="matrix(1 0 0 1 304.924 1933)">
   <path d="M14.9707 5.66406C21.9336 5.66406 27.6953-0.0976562 27.6953-7.05078C27.6953-14.0137 21.9238-19.7754 14.9609-19.7754C8.00781-19.7754 2.25586-14.0137 2.25586-7.05078C2.25586-0.0976562 8.01758 5.66406 14.9707 5.66406ZM14.9707 3.84766C8.93555 3.84766 4.08203-1.01562 4.08203-7.05078C4.08203-13.0957 8.92578-17.9492 14.9609-17.9492C21.0059-17.9492 25.8594-13.0957 25.8691-7.05078C25.8789-1.01562 21.0156 3.84766 14.9707 3.84766ZM14.9414-1.38672C15.5176-1.38672 15.8594-1.77734 15.8594-2.38281L15.8594-6.13281L19.7754-6.13281C20.3711-6.13281 20.7812-6.46484 20.7812-7.02148C20.7812-7.59766 20.3906-7.93945 19.7754-7.93945L15.8594-7.93945L15.8594-11.8652C15.8594-12.4805 15.5176-12.8711 14.9414-12.8711C14.375-12.8711 14.0527-12.4609 14.0527-11.8652L14.0527-7.93945L10.1465-7.93945C9.53125-7.93945 9.13086-7.59766 9.13086-7.02148C9.13086-6.46484 9.55078-6.13281 10.1465-6.13281L14.0527-6.13281L14.0527-2.38281C14.0527-1.79688 14.375-1.38672 14.9414-1.38672Z"/>
  </g>
  <text style="stroke:none;fill:black;font-family:-apple-system,&quot;SF Pro Display&quot;,&quot;SF Pro Text&quot;,Helvetica,sans-serif;font-weight:bold;" transform="matrix(1 0 0 1 263 1953)">Design Variations</text>
  <text style="stroke:none;fill:black;font-family:-apple-system,&quot;SF Pro Display&quot;,&quot;SF Pro Text&quot;,Helvetica,sans-serif;" transform="matrix(1 0 0 1 263 1971)">Symbols are supported in up to nine weights and three scales.</text>
  <text style="stroke:none;fill:black;font-family:-apple-system,&quot;SF Pro Display&quot;,&quot;SF Pro Text&quot;,Helvetica,sans-serif;" transform="matrix(1 0 0 1 263 1989)">For optimal layout with text and other symbols, vertically align</text>
  <text style="stroke:none;fill:black;font-family:-apple-system,&quot;SF Pro Display&quot;,&quot;SF Pro Text&quot;,Helvetica,sans-serif;" transform="matrix(1 0 0 1 263 2007)">symbols with the adjacent text.</text>
  <line id="" style="fill:none;stroke:#00AEEF;stroke-width:0.5;opacity:1.0;" x1="776" x2="776" y1="1919" y2="1933"/>
  <g id="" transform="matrix(1 0 0 1 776 1933)">
   <path d="M3.31055 0.126953C3.82812 0.126953 4.08203-0.0683594 4.26758-0.605469L5.52734-4.0625L11.2891-4.0625L12.5488-0.605469C12.7344-0.0683594 12.9883 0.126953 13.4961 0.126953C14.0137 0.126953 14.3457-0.185547 14.3457-0.673828C14.3457-0.839844 14.3164-0.986328 14.2383-1.20117L9.6582-13.3887C9.43359-13.9941 9.0332-14.2871 8.4082-14.2871C7.80273-14.2871 7.39258-13.9941 7.17773-13.3984L2.59766-1.19141C2.51953-0.976562 2.49023-0.830078 2.49023-0.664062C2.49023-0.175781 2.80273 0.126953 3.31055 0.126953ZM6.00586-5.53711L8.37891-12.1094L8.42773-12.1094L10.8008-5.53711Z"/>
  </g>
  <line id="" style="fill:none;stroke:#00AEEF;stroke-width:0.5;opacity:1.0;" x1="792.836" x2="792.836" y1="1919" y2="1933"/>
  <text style="stroke:none;fill:black;font-family:-apple-system,&quot;SF Pro Display&quot;,&quot;SF Pro Text&quot;,Helvetica,sans-serif;font-weight:bold;" transform="matrix(1 0 0 1 776 1953)">Margins</text>
  <text style="stroke:none;fill:black;font-family:-apple-system,&quot;SF Pro Display&quot;,&quot;SF Pro Text&quot;,Helvetica,sans-serif;" transform="matrix(1 0 0 1 776 1971)">Leading and trailing margins on the left and right side of each symbol</text>
  <text style="stroke:none;fill:black;font-family:-apple-system,&quot;SF Pro Display&quot;,&quot;SF Pro Text&quot;,Helvetica,sans-serif;" transform="matrix(1 0 0 1 776 1989)">can be adjusted by modifying the x-location of the margin guidelines.</text>
  <text style="stroke:none;fill:black;font-family:-apple-system,&quot;SF Pro Display&quot;,&quot;SF Pro Text&quot;,Helvetica,sans-serif;" transform="matrix(1 0 0 1 776 2007)">Modifications are automatically applied proportionally to all</text>
  <text style="stroke:none;fill:black;font-family:-apple-system,&quot;SF Pro Display&quot;,&quot;SF Pro Text&quot;,Helvetica,sans-serif;" transform="matrix(1 0 0 1 776 2025)">scales and weights.</text>
  <g id="" transform="matrix(1 0 0 1 1289 1933)">
   <path d="M2.8418 1.86523L4.54102 3.57422C5.40039 4.44336 6.38672 4.38477 7.31445 3.35938L17.4902-7.85156C17.7539-7.76367 18.0273-7.7832 18.3398-7.8418L19.4043-8.03711L20.0684-7.36328L20.0293-6.80664C19.9902-6.30859 20.1172-5.92773 20.6055-5.44922L21.3672-4.70703C21.8457-4.22852 22.4609-4.19922 22.9297-4.66797L25.8398-7.58789C26.3086-8.05664 26.2891-8.65234 25.8105-9.13086L25.0391-9.89258C24.5605-10.3711 24.1895-10.5273 23.7109-10.4883L23.1348-10.4395L22.4902-11.0742L22.7344-12.1973C22.8613-12.7637 22.7051-13.2031 22.1191-13.7891L19.9219-15.9766C16.582-19.2969 12.1484-19.2188 9.25781-16.3281C8.83789-15.918 8.80859-15.3418 9.04297-14.9512C9.27734-14.5898 9.73633-14.3555 10.3809-14.5215C11.8457-14.8633 13.3691-14.9219 14.7949-13.9844L14.209-12.5293C14.0137-12.0508 13.9844-11.6504 14.1113-11.2891L3.04688-0.898438C2.06055 0.0195312 1.98242 0.996094 2.8418 1.86523ZM10.752-15.957C13.1836-17.7344 16.4746-17.4316 18.7012-15.2051L21.1328-12.793C21.3672-12.5586 21.4062-12.373 21.3379-12.0312L21.0156-10.5469L22.5195-9.0625L23.5059-9.12109C23.7598-9.13086 23.8379-9.11133 24.0332-8.91602L24.6094-8.33984L22.168-5.89844L21.5918-6.47461C21.3965-6.66992 21.3672-6.74805 21.377-7.01172L21.4453-7.98828L19.9512-9.47266L18.4277-9.21875C18.1055-9.15039 17.959-9.17969 17.7148-9.41406L15.7129-11.416C15.459-11.6504 15.4297-11.8164 15.5859-12.1875L16.4648-14.2773C14.9023-15.7324 12.8711-16.3574 10.8398-15.7617C10.6836-15.7227 10.625-15.8496 10.752-15.957ZM5.27344 2.30469L4.10156 1.14258C3.63281 0.683594 3.74023 0.341797 4.14062-0.0195312L14.9512-10.1953L16.416-8.71094L6.42578 2.27539C6.07422 2.67578 5.74219 2.77344 5.27344 2.30469Z"/>
  </g>
  <text style="stroke:none;fill:black;font-family:-apple-system,&quot;SF Pro Display&quot;,&quot;SF Pro Text&quot;,Helvetica,sans-serif;font-weight:bold;" transform="matrix(1 0 0 1 1289 1953)">Exporting</text>
  <text style="stroke:none;fill:black;font-family:-apple-system,&quot;SF Pro Display&quot;,&quot;SF Pro Text&quot;,Helvetica,sans-serif;" transform="matrix(1 0 0 1 1289 1971)">Symbols should be outlined when exporting to ensure the</text>
  <text style="stroke:none;fill:black;font-family:-apple-system,&quot;SF Pro Display&quot;,&quot;SF Pro Text&quot;,Helvetica,sans-serif;" transform="matrix(1 0 0 1 1289 1989)">design is preserved when submitting to Xcode.</text>
  <text id="template-version" style="stroke:none;fill:black;font-family:-apple-system,&quot;SF Pro Display&quot;,&quot;SF Pro Text&quot;,Helvetica,sans-serif;text-anchor:end;" transform="matrix(1 0 0 1 3036 1933)">Template v.2.0</text>
  <text style="stroke:none;fill:black;font-family:-apple-system,&quot;SF Pro Display&quot;,&quot;SF Pro Text&quot;,Helvetica,sans-serif;text-anchor:end;" transform="matrix(1 0 0 1 3036 1951)">Requires Xcode 12 or greater</text>
  <text style="stroke:none;fill:black;font-family:-apple-system,&quot;SF Pro Display&quot;,&quot;SF Pro Text&quot;,Helvetica,sans-serif;text-anchor:end;" transform="matrix(1 0 0 1 3036 1969)">Generated from bookmark.circle.fill</text>
  <text style="stroke:none;fill:black;font-family:-apple-system,&quot;SF Pro Display&quot;,&quot;SF Pro Text&quot;,Helvetica,sans-serif;text-anchor:end;" transform="matrix(1 0 0 1 3036 1987)">Typeset at 100 points</text>
  <text style="stroke:none;fill:black;font-family:-apple-system,&quot;SF Pro Display&quot;,&quot;SF Pro Text&quot;,Helvetica,sans-serif;" transform="matrix(1 0 0 1 263 726)">Small</text>
  <text style="stroke:none;fill:black;font-family:-apple-system,&quot;SF Pro Display&quot;,&quot;SF Pro Text&quot;,Helvetica,sans-serif;" transform="matrix(1 0 0 1 263 1156)">Medium</text>
  <text style="stroke:none;fill:black;font-family:-apple-system,&quot;SF Pro Display&quot;,&quot;SF Pro Text&quot;,Helvetica,sans-serif;" transform="matrix(1 0 0 1 263 1586)">Large</text>
 </g>
 <g id="Guides">
  <g id="H-reference" style="fill:#27AAE1;stroke:none;" transform="matrix(1 0 0 1 339 696)">
   <path d="M0.976562 0L3.66211 0L12.9883-24.4629L45.752-24.4629L55.127 0L57.7637 0L30.6152-70.459L28.125-70.459ZM29.3457-67.1387L29.4434-67.1387L44.873-26.709L13.8672-26.709Z"/>
  </g>
  <line id="Baseline-S" style="fill:none;stroke:#27AAE1;opacity:1;stroke-width:0.5;" x1="263" x2="3036" y1="696" y2="696"/>
  <line id="Capline-S" style="fill:none;stroke:#27AAE1;opacity:1;stroke-width:0.5;" x1="263" x2="3036" y1="625.541" y2="625.541"/>
  <g id="H-reference" style="fill:#27AAE1;stroke:none;" transform="matrix(1 0 0 1 339 1126)">
   <path d="M0.976562 0L3.66211 0L12.9883-24.4629L45.752-24.4629L55.127 0L57.7637 0L30.6152-70.459L28.125-70.459ZM29.3457-67.1387L29.4434-67.1387L44.873-26.709L13.8672-26.709Z"/>
  </g>
  <line id="Baseline-M" style="fill:none;stroke:#27AAE1;opacity:1;stroke-width:0.5;" x1="263" x2="3036" y1="1126" y2="1126"/>
  <line id="Capline-M" style="fill:none;stroke:#27AAE1;opacity:1;stroke-width:0.5;" x1="263" x2="3036" y1="1055.54" y2="1055.54"/>
  <g id="H-reference" style="fill:#27AAE1;stroke:none;" transform="matrix(1 0 0 1 339 1556)">
   <path d="M0.976562 0L3.66211 0L12.9883-24.4629L45.752-24.4629L55.127 0L57.7637 0L30.6152-70.459L28.125-70.459ZM29.3457-67.1387L29.4434-67.1387L44.873-26.709L13.8672-26.709Z"/>
  </g>
  <line id="Baseline-L" style="fill:none;stroke:#27AAE1;opacity:1;stroke-width:0.5;" x1="263" x2="3036" y1="1556" y2="1556"/>
  <line id="Capline-L" style="fill:none;stroke:#27AAE1;opacity:1;stroke-width:0.5;" x1="263" x2="3036" y1="1485.54" y2="1485.54"/>
  <line id="left-margin" style="fill:none;stroke:#00AEEF;stroke-width:0.5;opacity:1.0;" x1="1391.3" x2="1391.3" y1="1030.79" y2="1150.12"/>
  <line id="right-margin" style="fill:none;stroke:#00AEEF;stroke-width:0.5;opacity:1.0;" x1="1508.39" x2="1508.39" y1="1030.79" y2="1150.12"/>
 </g>
 <g id="Symbols">
  <g id="Black-L" transform="matrix(1 0 0 1 2854.05 1556)">
   <path d="M79.3457 32.9102C116.748 32.9102 147.412 2.29492 147.412-35.1074C147.412-72.5586 116.748-103.174 79.2969-103.174C41.8945-103.174 11.2793-72.5586 11.2793-35.1074C11.2793 2.29492 41.9434 32.9102 79.3457 32.9102ZM62.1094-0.341797C58.4473-0.341797 55.957-2.97852 55.957-6.93359L55.957-59.2285C55.957-66.0645 59.9121-70.0684 66.748-70.0684L91.8945-70.0684C98.7305-70.0684 102.686-66.0645 102.686-59.2285L102.686-6.93359C102.686-2.97852 100.146-0.341797 96.5332-0.341797C94.3848-0.341797 92.9199-1.26953 90.5762-3.51562L79.541-14.502C79.3945-14.6973 79.1992-14.6973 79.1016-14.502L68.1152-3.51562C65.7715-1.26953 64.2578-0.341797 62.1094-0.341797Z"/>
  </g>
  <g id="Heavy-L" transform="matrix(1 0 0 1 2558.39 1556)">
   <path d="M78.2715 31.8848C115.088 31.8848 145.312 1.66016 145.312-35.1562C145.312-71.9238 115.039-102.148 78.2715-102.148C41.4551-102.148 11.2793-71.9238 11.2793-35.1562C11.2793 1.66016 41.5039 31.8848 78.2715 31.8848ZM60.5469-0.488281C57.3242-0.488281 55.0781-2.83203 55.0781-6.39648L55.0781-59.2773C55.0781-65.918 58.8379-69.7266 65.5273-69.7266L90.9668-69.7266C97.6562-69.7266 101.416-65.918 101.416-59.2773L101.416-6.39648C101.416-2.83203 99.1699-0.488281 95.9473-0.488281C93.9453-0.488281 92.627-1.41602 90.2344-3.71094L78.4668-15.4297C78.3691-15.5762 78.125-15.5762 78.0273-15.4297L66.3086-3.71094C63.916-1.41602 62.5488-0.488281 60.5469-0.488281Z"/>
  </g>
  <g id="Bold-L" transform="matrix(1 0 0 1 2262.88 1556)">
   <path d="M77.0996 30.6641C113.232 30.6641 142.92 0.927734 142.92-35.1562C142.92-71.2891 113.184-100.977 77.0508-100.977C40.9668-100.977 11.2793-71.2891 11.2793-35.1562C11.2793 0.927734 41.0156 30.6641 77.0996 30.6641ZM58.8379-0.634766C56.0059-0.634766 54.1016-2.68555 54.1016-5.85938L54.1016-59.3262C54.1016-65.8203 57.7148-69.4336 64.1602-69.4336L89.9902-69.4336C96.4355-69.4336 100-65.8203 100-59.3262L100-5.85938C100-2.68555 98.0957-0.634766 95.3125-0.634766C93.457-0.634766 92.334-1.5625 89.8926-3.90625L77.2949-16.4062C77.1973-16.6016 76.9531-16.6016 76.8066-16.4062L64.2578-3.90625C61.8164-1.5625 60.6445-0.634766 58.8379-0.634766Z"/>
  </g>
  <g id="Semibold-L" transform="matrix(1 0 0 1 1966.97 1556)">
   <path d="M76.2695 29.834C111.914 29.834 141.309 0.439453 141.309-35.1562C141.309-70.8008 111.865-100.195 76.2695-100.195C40.625-100.195 11.2793-70.8008 11.2793-35.1562C11.2793 0.439453 40.6738 29.834 76.2695 29.834ZM57.6172-0.78125C55.127-0.78125 53.4668-2.58789 53.4668-5.46875L53.4668-59.375C53.4668-65.7227 56.8848-69.1895 63.2324-69.1895L89.2578-69.1895C95.6055-69.1895 99.0234-65.7227 99.0234-59.375L99.0234-5.46875C99.0234-2.58789 97.3633-0.78125 94.873-0.78125C93.1641-0.78125 92.0898-1.66016 89.6484-4.05273L76.5137-17.1387C76.3672-17.2852 76.123-17.2852 75.9766-17.1387L62.8906-4.05273C60.4004-1.66016 59.3262-0.78125 57.6172-0.78125Z"/>
  </g>
  <g id="Medium-L" transform="matrix(1 0 0 1 1670.87 1556)">
   <path d="M75.6836 29.1992C110.938 29.1992 140.088 0.0976562 140.088-35.1562C140.088-70.459 110.889-99.5605 75.6348-99.5605C40.3809-99.5605 11.2793-70.459 11.2793-35.1562C11.2793 0.0976562 40.3809 29.1992 75.6836 29.1992ZM56.7383-0.878906C54.4434-0.878906 52.9297-2.49023 52.9297-5.17578L52.9297-59.375C52.9297-65.625 56.2988-68.9941 62.5-68.9941L88.7207-68.9941C94.9707-68.9941 98.291-65.625 98.291-59.375L98.291-5.17578C98.291-2.49023 96.7773-0.878906 94.5312-0.878906C92.9199-0.878906 91.9434-1.70898 89.4531-4.15039L75.8789-17.6758C75.7324-17.8223 75.4883-17.8223 75.3418-17.6758L61.8164-4.15039C59.3262-1.70898 58.3496-0.878906 56.7383-0.878906Z"/>
  </g>
  <g id="Regular-L" transform="matrix(1 0 0 1 1374.97 1556)">
   <path d="M74.8535 28.418C109.668 28.418 138.477-0.390625 138.477-35.2051C138.477-69.9707 109.619-98.7793 74.8047-98.7793C40.0391-98.7793 11.2793-69.9707 11.2793-35.2051C11.2793-0.390625 40.0879 28.418 74.8535 28.418ZM55.5664-0.976562C53.5645-0.976562 52.2949-2.39258 52.2949-4.78516L52.2949-59.4238C52.2949-65.5273 55.4688-68.7988 61.5723-68.7988L88.0371-68.7988C94.1406-68.7988 97.3145-65.5273 97.3145-59.4238L97.3145-4.78516C97.3145-2.39258 96.0449-0.976562 94.0918-0.976562C92.5781-0.976562 91.6992-1.80664 89.209-4.29688L75.0977-18.3594C74.9512-18.5059 74.707-18.5059 74.5117-18.3594L60.4492-4.29688C57.9102-1.80664 57.0312-0.976562 55.5664-0.976562Z"/>
  </g>
  <g id="Light-L" transform="matrix(1 0 0 1 1079.18 1556)">
   <path d="M73.9258 27.4902C108.301 27.4902 136.621-0.830078 136.621-35.2051C136.621-69.5312 108.252-97.8516 73.9258-97.8516C39.5508-97.8516 11.2793-69.5312 11.2793-35.2051C11.2793-0.830078 39.5996 27.4902 73.9258 27.4902ZM54.5898-1.26953C52.832-1.26953 51.709-2.58789 51.709-4.58984L51.709-59.1309C51.709-64.9902 54.7852-68.1152 60.5957-68.1152L87.207-68.1152C93.0176-68.1152 96.0938-64.9902 96.0938-59.1309L96.0938-4.58984C96.0938-2.58789 94.9707-1.26953 93.2617-1.26953C91.9922-1.26953 91.2598-1.95312 89.3555-3.80859L74.1699-19.2383C74.0234-19.3848 73.7793-19.3848 73.6328-19.2383L58.4473-3.80859C56.543-1.95312 55.8105-1.26953 54.5898-1.26953Z"/>
  </g>
  <g id="Thin-L" transform="matrix(1 0 0 1 783.693 1556)">
   <path d="M72.7051 26.2695C106.494 26.2695 134.18-1.41602 134.18-35.2051C134.18-68.9453 106.494-96.6309 72.7051-96.6309C38.9648-96.6309 11.2793-68.9453 11.2793-35.2051C11.2793-1.41602 38.9648 26.2695 72.7051 26.2695ZM53.2715-1.70898C51.9043-1.70898 50.9766-2.7832 50.9766-4.29688L50.9766-58.7891C50.9766-64.2578 53.9062-67.1875 59.3262-67.1875L86.1328-67.1875C91.5039-67.1875 94.4824-64.2578 94.4824-58.7891L94.4824-4.29688C94.4824-2.7832 93.5059-1.70898 92.1387-1.70898C91.2598-1.70898 90.625-2.14844 89.5996-3.17383L72.9492-20.4102C72.8027-20.5566 72.6074-20.5566 72.4609-20.4102L55.8105-3.17383C54.7852-2.14844 54.1504-1.70898 53.2715-1.70898Z"/>
  </g>
  <g id="Ultralight-L" transform="matrix(1 0 0 1 487.616 1556)">
   <path d="M72.1191 25.6348C105.566 25.6348 132.91-1.70898 132.91-35.2051C132.91-68.6523 105.566-95.9961 72.1191-95.9961C38.623-95.9961 11.2793-68.6523 11.2793-35.2051C11.2793-1.70898 38.623 25.6348 72.1191 25.6348ZM52.5879-1.9043C51.416-1.9043 50.5859-2.92969 50.5859-4.15039L50.5859-58.5938C50.5859-63.8672 53.418-66.748 58.6426-66.748L85.5469-66.748C90.7715-66.748 93.6035-63.8672 93.6035-58.5938L93.6035-4.15039C93.6035-2.92969 92.7734-1.9043 91.6016-1.9043C90.8691-1.9043 90.332-2.24609 89.7461-2.88086L72.3145-20.9961C72.168-21.1426 72.0215-21.1426 71.875-20.9961L54.4434-2.88086C53.8574-2.24609 53.3203-1.9043 52.5879-1.9043Z"/>
  </g>
  <g id="Black-M" transform="matrix(1 0 0 1 2870.97 1126)">
   <path d="M62.4023 18.5547C91.9922 18.5547 116.113-5.56641 116.113-35.1562C116.113-64.7461 91.9922-88.8184 62.4023-88.8184C32.8125-88.8184 8.74023-64.7461 8.74023-35.1562C8.74023-5.56641 32.8125 18.5547 62.4023 18.5547ZM49.707-8.1543C46.4844-8.1543 44.1895-10.498 44.1895-13.8672L44.1895-53.6133C44.1895-58.9844 47.4609-62.2559 52.832-62.2559L72.0215-62.2559C77.3926-62.2559 80.6152-58.9844 80.6152-53.6133L80.6152-13.8672C80.6152-10.498 78.3691-8.1543 75.1465-8.1543C73.3887-8.1543 72.1191-8.83789 70.752-10.1562L62.5488-18.457C62.5-18.5547 62.3535-18.5547 62.3047-18.457L54.1504-10.1562C52.7832-8.83789 51.4648-8.1543 49.707-8.1543Z"/>
  </g>
  <g id="Heavy-M" transform="matrix(1 0 0 1 2575.19 1126)">
   <path d="M61.5234 17.627C90.5273 17.627 114.258-6.10352 114.258-35.1562C114.258-64.1602 90.5273-87.8906 61.4746-87.8906C32.4707-87.8906 8.74023-64.1602 8.74023-35.1562C8.74023-6.10352 32.4707 17.627 61.5234 17.627ZM48.2422-8.25195C45.4102-8.25195 43.4082-10.3027 43.4082-13.3789L43.4082-53.7598C43.4082-58.9844 46.4844-62.1094 51.7578-62.1094L71.2402-62.1094C76.4648-62.1094 79.5898-58.9844 79.5898-53.7598L79.5898-13.3789C79.5898-10.3027 77.5879-8.25195 74.707-8.25195C73.0957-8.25195 71.9727-8.93555 70.3125-10.498L61.6211-19.1895C61.5723-19.3359 61.4258-19.3359 61.3281-19.1895L52.6855-10.498C51.0742-8.93555 49.9023-8.25195 48.2422-8.25195Z"/>
  </g>
  <g id="Bold-M" transform="matrix(1 0 0 1 2279.5 1126)">
   <path d="M60.498 16.5527C88.8672 16.5527 112.207-6.73828 112.207-35.1562C112.207-63.5742 88.8672-86.9141 60.4492-86.9141C32.0312-86.9141 8.74023-63.5742 8.74023-35.1562C8.74023-6.73828 32.0801 16.5527 60.498 16.5527ZM46.6309-8.34961C44.1895-8.34961 42.5293-10.1074 42.5293-12.793L42.5293-53.8574C42.5293-59.0332 45.4102-61.9141 50.5371-61.9141L70.3613-61.9141C75.4883-61.9141 78.3691-59.0332 78.3691-53.8574L78.3691-12.793C78.3691-10.1074 76.709-8.34961 74.2676-8.34961C72.7539-8.34961 71.7285-9.0332 69.873-10.8398L60.6445-20.0195C60.5469-20.166 60.3516-20.166 60.3027-20.0195L51.0742-10.8398C49.2188-9.0332 48.1934-8.34961 46.6309-8.34961Z"/>
  </g>
  <g id="Semibold-M" transform="matrix(1 0 0 1 1983.5 1126)">
   <path d="M59.7656 15.8691C87.7441 15.8691 110.791-7.22656 110.791-35.1562C110.791-63.1348 87.6953-86.2305 59.7656-86.2305C31.7871-86.2305 8.74023-63.1348 8.74023-35.1562C8.74023-7.22656 31.7871 15.8691 59.7656 15.8691ZM45.5566-8.39844C43.3594-8.39844 41.9434-9.96094 41.9434-12.4023L41.9434-53.9551C41.9434-59.0332 44.6777-61.8164 49.7559-61.8164L69.7754-61.8164C74.8047-61.8164 77.5879-59.0332 77.5879-53.9551L77.5879-12.4023C77.5879-9.96094 76.123-8.39844 73.9258-8.39844C72.5098-8.39844 71.582-9.13086 69.5801-11.084L59.9609-20.6055C59.8633-20.752 59.668-20.752 59.5703-20.6055L49.9512-11.084C47.9004-9.13086 46.9727-8.39844 45.5566-8.39844Z"/>
  </g>
  <g id="Medium-M" transform="matrix(1 0 0 1 1687.3 1126)">
   <path d="M59.2285 15.332C86.9141 15.332 109.766-7.51953 109.766-35.2051C109.766-62.8418 86.8652-85.6934 59.1797-85.6934C31.543-85.6934 8.74023-62.8418 8.74023-35.2051C8.74023-7.51953 31.5918 15.332 59.2285 15.332ZM44.7266-8.44727C42.7734-8.44727 41.4551-9.86328 41.4551-12.1094L41.4551-54.0527C41.4551-59.0332 44.1406-61.7188 49.1211-61.7188L69.2871-61.7188C74.2676-61.7188 76.9531-59.0332 76.9531-54.0527L76.9531-12.1094C76.9531-9.86328 75.6836-8.44727 73.6816-8.44727C72.3145-8.44727 71.4844-9.17969 69.3359-11.2793L59.4238-21.0449C59.3262-21.1914 59.082-21.1914 58.9844-21.0449L49.0723-11.2793C46.9238-9.17969 46.0938-8.44727 44.7266-8.44727Z"/>
  </g>
  <g id="Regular-M" transform="matrix(1 0 0 1 1391.3 1126)">
   <path d="M58.5449 14.5996C85.791 14.5996 108.35-7.95898 108.35-35.2051C108.35-62.4023 85.7422-85.0098 58.4961-85.0098C31.2988-85.0098 8.74023-62.4023 8.74023-35.2051C8.74023-7.95898 31.3477 14.5996 58.5449 14.5996ZM43.6035-8.49609C41.9434-8.49609 40.8691-9.7168 40.8691-11.7188L40.8691-54.1504C40.8691-59.0332 43.4082-61.6211 48.291-61.6211L68.7012-61.6211C73.584-61.6211 76.123-59.0332 76.123-54.1504L76.123-11.7188C76.123-9.7168 75.0488-8.49609 73.3887-8.49609C72.0703-8.49609 71.3379-9.27734 69.043-11.5234L58.7402-21.6309C58.5938-21.7773 58.3984-21.7773 58.252-21.6309L47.998-11.5234C45.6543-9.27734 44.9219-8.49609 43.6035-8.49609Z"/>
  </g>
  <g id="Light-M" transform="matrix(1 0 0 1 1095.42 1126)">
   <path d="M57.7148 13.7695C84.5215 13.7695 106.689-8.34961 106.689-35.2051C106.689-62.0117 84.5215-84.1797 57.666-84.1797C30.8594-84.1797 8.74023-62.0117 8.74023-35.2051C8.74023-8.34961 30.9082 13.7695 57.7148 13.7695ZM42.7246-8.78906C41.3086-8.78906 40.332-9.86328 40.332-11.5723L40.332-53.8574C40.332-58.5449 42.7734-60.9863 47.4121-60.9863L67.9688-60.9863C72.6074-60.9863 75.0488-58.5449 75.0488-53.8574L75.0488-11.5723C75.0488-9.86328 74.0723-8.78906 72.6562-8.78906C71.582-8.78906 70.9473-9.375 69.1895-11.084L57.9102-22.4121C57.7637-22.5586 57.6172-22.5586 57.4707-22.4121L46.1914-11.084C44.4336-9.375 43.7988-8.78906 42.7246-8.78906Z"/>
  </g>
  <g id="Thin-M" transform="matrix(1 0 0 1 799.806 1126)">
   <path d="M56.6406 12.6953C82.9102 12.6953 104.492-8.88672 104.492-35.2051C104.492-61.4746 82.9102-83.0566 56.5918-83.0566C30.3223-83.0566 8.74023-61.4746 8.74023-35.2051C8.74023-8.88672 30.3223 12.6953 56.6406 12.6953ZM41.5527-9.17969C40.4297-9.17969 39.6484-10.0586 39.6484-11.3281L39.6484-53.5645C39.6484-57.8613 41.9922-60.2051 46.2402-60.2051L66.9922-60.2051C71.2402-60.2051 73.584-57.8613 73.584-53.5645L73.584-11.3281C73.584-10.0586 72.8027-9.17969 71.6797-9.17969C70.8984-9.17969 70.4102-9.57031 69.3848-10.5469L56.8359-23.4863C56.6895-23.6328 56.543-23.6328 56.3965-23.4863L43.8477-10.5469C42.8223-9.57031 42.334-9.17969 41.5527-9.17969Z"/>
  </g>
  <g id="Ultralight-M" transform="matrix(1 0 0 1 503.656 1126)">
   <path d="M56.0547 12.1094C82.0801 12.1094 103.369-9.17969 103.369-35.2051C103.369-61.2305 82.0801-82.5195 56.0547-82.5195C30.0293-82.5195 8.74023-61.2305 8.74023-35.2051C8.74023-9.17969 30.0293 12.1094 56.0547 12.1094ZM40.9668-9.32617C39.9902-9.32617 39.3066-10.1562 39.3066-11.1816L39.3066-53.3691C39.3066-57.5684 41.5527-59.7656 45.6543-59.7656L66.4551-59.7656C70.5566-59.7656 72.8027-57.5684 72.8027-53.3691L72.8027-11.1816C72.8027-10.1562 72.1191-9.32617 71.1426-9.32617C70.5566-9.32617 70.1172-9.66797 69.5312-10.2539L56.25-24.0234C56.1035-24.1699 56.0059-24.1699 55.8594-24.0234L42.627-10.2539C42.041-9.66797 41.6016-9.32617 40.9668-9.32617Z"/>
  </g>
  <g id="Black-S" transform="matrix(1 0 0 1 2884.57 696)">
   <path d="M48.8281 6.83594C71.9727 6.83594 90.8203-12.0117 90.8203-35.1562C90.8203-58.3008 71.9727-77.1484 48.8281-77.1484C25.6836-77.1484 6.83594-58.3008 6.83594-35.1562C6.83594-12.0117 25.6836 6.83594 48.8281 6.83594ZM38.8184-14.0137C36.3281-14.0137 34.5703-15.8203 34.5703-18.457L34.5703-49.6582C34.5703-53.8574 37.1094-56.3965 41.3086-56.3965L56.3477-56.3965C60.5469-56.3965 63.0859-53.8574 63.0859-49.6582L63.0859-18.457C63.0859-15.8203 61.3281-14.0137 58.8379-14.0137C57.4707-14.0137 56.4941-14.5508 55.3711-15.625L48.9258-22.1191C48.877-22.2168 48.7793-22.2168 48.7305-22.1191L42.334-15.625C41.2109-14.5508 40.1855-14.0137 38.8184-14.0137Z"/>
  </g>
  <g id="Heavy-S" transform="matrix(1 0 0 1 2588.47 696)">
   <path d="M48.2422 6.20117C70.9961 6.20117 89.5996-12.4023 89.5996-35.1562C89.5996-57.9102 70.9961-76.5625 48.1934-76.5625C25.4395-76.5625 6.83594-57.9102 6.83594-35.1562C6.83594-12.4023 25.4395 6.20117 48.2422 6.20117ZM37.8418-14.0625C35.5957-14.0625 34.0332-15.6738 34.0332-18.1152L34.0332-49.7559C34.0332-53.9062 36.4258-56.3477 40.5762-56.3477L55.8594-56.3477C59.9609-56.3477 62.4023-53.9062 62.4023-49.7559L62.4023-18.1152C62.4023-15.6738 60.8398-14.0625 58.5938-14.0625C57.2754-14.0625 56.3965-14.5996 55.0293-15.918L48.3398-22.6074C48.291-22.7051 48.1445-22.7051 48.0957-22.6074L41.4062-15.918C40.0391-14.5996 39.1113-14.0625 37.8418-14.0625Z"/>
  </g>
  <g id="Bold-S" transform="matrix(1 0 0 1 2292.44 696)">
   <path d="M47.5586 5.51758C69.873 5.51758 88.2324-12.8418 88.2324-35.2051C88.2324-57.5195 69.873-75.8789 47.5098-75.8789C25.1953-75.8789 6.83594-57.5195 6.83594-35.2051C6.83594-12.8418 25.1953 5.51758 47.5586 5.51758ZM36.7188-14.0625C34.7168-14.0625 33.3984-15.4785 33.3984-17.6758L33.3984-49.9023C33.3984-54.0039 35.6934-56.2988 39.7949-56.2988L55.2734-56.2988C59.3262-56.2988 61.6211-54.0039 61.6211-49.9023L61.6211-17.6758C61.6211-15.4785 60.3027-14.0625 58.3496-14.0625C57.0801-14.0625 56.2988-14.6973 54.6875-16.2598L47.6562-23.1445C47.6074-23.2422 47.4609-23.2422 47.3633-23.1445L40.3809-16.2598C38.7695-14.6973 37.9395-14.0625 36.7188-14.0625Z"/>
  </g>
  <g id="Semibold-S" transform="matrix(1 0 0 1 1996.2 696)">
   <path d="M47.0703 5.0293C69.0918 5.0293 87.3047-13.1348 87.3047-35.2051C87.3047-57.2266 69.0918-75.4395 47.0215-75.4395C25-75.4395 6.83594-57.2266 6.83594-35.2051C6.83594-13.1348 25.0488 5.0293 47.0703 5.0293ZM35.9375-14.1113C34.1797-14.1113 33.0078-15.3809 33.0078-17.3828L33.0078-50C33.0078-54.0527 35.1562-56.25 39.209-56.25L54.8828-56.25C58.8867-56.25 61.084-54.0527 61.084-50L61.084-17.3828C61.084-15.3809 59.9121-14.1113 58.1543-14.1113C56.9336-14.1113 56.2012-14.7461 54.4434-16.4551L47.2168-23.5352C47.1191-23.6328 46.9727-23.6328 46.875-23.5352L39.6973-16.4551C37.8906-14.7461 37.1582-14.1113 35.9375-14.1113Z"/>
  </g>
  <g id="Medium-S" transform="matrix(1 0 0 1 1699.83 696)">
   <path d="M46.7285 4.6875C68.5547 4.6875 86.6211-13.3789 86.6211-35.2051C86.6211-57.0312 68.5059-75.0977 46.6797-75.0977C24.8535-75.0977 6.83594-57.0312 6.83594-35.2051C6.83594-13.3789 24.9023 4.6875 46.7285 4.6875ZM35.3516-14.1113C33.7402-14.1113 32.666-15.2832 32.666-17.1875L32.666-50.0488C32.666-54.0527 34.7656-56.25 38.8184-56.25L54.5898-56.25C58.5938-56.25 60.6934-54.0527 60.6934-50.0488L60.6934-17.1875C60.6934-15.2832 59.6191-14.1113 58.0078-14.1113C56.8359-14.1113 56.1523-14.7461 54.248-16.6504L46.875-23.8281C46.7773-23.9258 46.582-23.9258 46.4844-23.8281L39.1602-16.6504C37.207-14.7461 36.5234-14.1113 35.3516-14.1113Z"/>
  </g>
  <g id="Regular-S" transform="matrix(1 0 0 1 1403.58 696)">
   <path d="M46.2402 4.19922C67.7734 4.19922 85.6934-13.6719 85.6934-35.2051C85.6934-56.7383 67.7246-74.6094 46.1914-74.6094C24.707-74.6094 6.83594-56.7383 6.83594-35.2051C6.83594-13.6719 24.7559 4.19922 46.2402 4.19922ZM34.5703-14.1602C33.1543-14.1602 32.2266-15.1367 32.2266-16.8945L32.2266-50.1465C32.2266-54.1016 34.2773-56.2012 38.2324-56.2012L54.1992-56.2012C58.1543-56.2012 60.1562-54.1016 60.1562-50.1465L60.1562-16.8945C60.1562-15.1367 59.2773-14.1602 57.8613-14.1602C56.6895-14.1602 56.1035-14.7949 54.0039-16.8945L46.3867-24.2188C46.2891-24.3164 46.0938-24.3164 45.9961-24.2188L38.4277-16.8945C36.3281-14.7949 35.6934-14.1602 34.5703-14.1602Z"/>
  </g>
  <g id="Light-S" transform="matrix(1 0 0 1 1107.6 696)">
   <path d="M45.5078 3.4668C66.6992 3.4668 84.2285-14.0137 84.2285-35.2051C84.2285-56.3965 66.6504-73.877 45.5078-73.877C24.3164-73.877 6.83594-56.3965 6.83594-35.2051C6.83594-14.0137 24.3652 3.4668 45.5078 3.4668ZM33.7891-14.4043C32.5684-14.4043 31.7871-15.2832 31.7871-16.748L31.7871-49.9512C31.7871-53.6621 33.7402-55.6641 37.4512-55.6641L53.5156-55.6641C57.2266-55.6641 59.1797-53.6621 59.1797-49.9512L59.1797-16.748C59.1797-15.2832 58.3984-14.4043 57.1777-14.4043C56.25-14.4043 55.7129-14.9414 54.1504-16.5039L45.6543-24.9023C45.5566-25 45.4102-25 45.3125-24.9023L36.8652-16.5039C35.2539-14.9414 34.7168-14.4043 33.7891-14.4043Z"/>
  </g>
  <g id="Thin-S" transform="matrix(1 0 0 1 811.867 696)">
   <path d="M44.5801 2.53906C65.2832 2.53906 82.2754-14.502 82.2754-35.2051C82.2754-55.9082 65.2344-72.9492 44.5312-72.9492C23.8281-72.9492 6.83594-55.9082 6.83594-35.2051C6.83594-14.502 23.877 2.53906 44.5801 2.53906ZM32.7637-14.7461C31.8359-14.7461 31.2012-15.4785 31.2012-16.5527L31.2012-49.6582C31.2012-53.125 33.0078-54.9316 36.4258-54.9316L52.6367-54.9316C56.0547-54.9316 57.9102-53.125 57.9102-49.6582L57.9102-16.5527C57.9102-15.4785 57.2754-14.7461 56.2988-14.7461C55.6641-14.7461 55.2246-15.0879 54.2969-16.0156L44.7266-25.8301C44.6289-25.9277 44.4824-25.9277 44.3848-25.8301L34.7656-16.0156C33.8379-15.0879 33.4473-14.7461 32.7637-14.7461Z"/>
  </g>
  <g id="Ultralight-S" transform="matrix(1 0 0 1 515.644 696)">
   <path d="M44.043 2.00195C64.502 2.00195 81.2988-14.7461 81.2988-35.2051C81.2988-55.6641 64.502-72.4121 44.043-72.4121C23.584-72.4121 6.83594-55.6641 6.83594-35.2051C6.83594-14.7461 23.584 2.00195 44.043 2.00195ZM32.2266-14.8926C31.4453-14.8926 30.8594-15.5762 30.8594-16.4551L30.8594-49.5117C30.8594-52.7832 32.666-54.5898 35.8887-54.5898L52.1973-54.5898C55.4688-54.5898 57.2266-52.7832 57.2266-49.5117L57.2266-16.4551C57.2266-15.5762 56.6895-14.8926 55.8594-14.8926C55.3223-14.8926 54.9805-15.1855 54.4434-15.7227L44.1895-26.3184C44.0918-26.416 43.9941-26.416 43.8965-26.3184L33.6914-15.7227C33.1055-15.1855 32.7637-14.8926 32.2266-14.8926Z"/>
  </g>
 </g>
</svg>
