<svg xmlns="http://www.w3.org/2000/svg" viewBox="0 0 99.61 99.61"><g id="Слой_2" data-name="Слой 2"><g id="Слой_1-2" data-name="Слой 1"><g id="Regular-M"><path d="M49.8,99.61A50.15,50.15,0,0,0,99.61,49.8C99.61,22.61,77,0,49.76,0S0,22.61,0,49.8A50.18,50.18,0,0,0,49.8,99.61ZM17.19,59.33,34.13,37.4a4.26,4.26,0,0,1,3.22-1.85,6,6,0,0,1,2.79.88L62,48.14l16.8-9c3-1.61,5.66,1.32,3.56,4l-17,22A4.14,4.14,0,0,1,62.06,67a5.88,5.88,0,0,1-2.73-.88L37.4,54.44l-16.65,9C17.87,65,14.89,62.35,17.19,59.33Z"/></g></g></g></svg>