<svg xmlns="http://www.w3.org/2000/svg" viewBox="0 0 86.67 110.21"><g id="Слой_2" data-name="Слой 2"><g id="Слой_1-2" data-name="Слой 1"><g id="Regular-M"><path d="M43.36,72a3.89,3.89,0,0,0,3.86-3.81V18l-.3-7.33,3.32,3.47,7.38,7.91a3.56,3.56,0,0,0,2.63,1.17,3.46,3.46,0,0,0,2.45-6L46.19,1.32a3.69,3.69,0,0,0-5.66,0L24,17.24a3.45,3.45,0,0,0-1.17,2.54,3.4,3.4,0,0,0,3.52,3.46,3.59,3.59,0,0,0,2.68-1.17l7.42-7.91,3.32-3.47L39.45,18V68.16A3.94,3.94,0,0,0,43.36,72Zm-28,38.24h56c10.2,0,15.33-5.08,15.33-15.14V46.34c0-10.06-5.13-15.14-15.33-15.14H57.71v7.86H71.19c4.84,0,7.62,2.64,7.62,7.72V94.63c0,5.08-2.78,7.71-7.62,7.71H15.43c-4.88,0-7.57-2.63-7.57-7.71V46.78c0-5.08,2.69-7.72,7.57-7.72H29V31.2H15.33C5.13,31.2,0,36.28,0,46.34V95.07C0,105.13,5.13,110.21,15.33,110.21Z"/></g></g></g></svg>